0
SECTION
2
HEADER
9
$INSUNITS
70
4
9
$ACADVER
1
AC1014
9
$HANDSEED
5
FFFF
0
ENDSEC
0
SECTION
2
TABLES
0
TABLE
2
VPORT
5
8
100
AcDbSymbolTable
0
ENDTAB
0
TABLE
2
LTYPE
5
5
100
AcDbSymbolTable
0
LTYPE
5
14
100
AcDbSymbolTableRecord
100
AcDbLinetypeTableRecord
2
BYBLOCK
70
0
0
LTYPE
5
15
100
AcDbSymbolTableRecord
100
AcDbLinetypeTableRecord
2
BYLAYER
70
0
0
ENDTAB
0
TABLE
2
LAYER
5
2
100
AcDbSymbolTable
70
2
0
LAYER
5
50
100
AcDbSymbolTableRecord
100
AcDbLayerTableRecord
2
0
70
0
6
CONTINUOUS
0
ENDTAB
0
TABLE
2
STYLE
5
3
100
AcDbSymbolTable
70
1
0
STYLE
5
11
100
AcDbSymbolTableRecord
100
AcDbTextStyleTableRecord
2
STANDARD
70
0
0
ENDTAB
0
TABLE
2
VIEW
5
6
100
AcDbSymbolTable
70
0
0
ENDTAB
0
TABLE
2
UCS
5
7
100
AcDbSymbolTable
70
0
0
ENDTAB
0
TABLE
2
APPID
5
9
100
AcDbSymbolTable
70
2
0
APPID
5
12
100
AcDbSymbolTableRecord
100
AcDbRegAppTableRecord
2
ACAD
70
0
0
ENDTAB
0
TABLE
2
DIMSTYLE
5
A
100
AcDbSymbolTable
70
1
0
ENDTAB
0
TABLE
2
BLOCK_RECORD
5
1
100
AcDbSymbolTable
70
1
0
BLOCK_RECORD
5
1F
100
AcDbSymbolTableRecord
100
AcDbBlockTableRecord
2
*MODEL_SPACE
0
BLOCK_RECORD
5
1B
100
AcDbSymbolTableRecord
100
AcDbBlockTableRecord
2
*PAPER_SPACE
0
ENDTAB
0
ENDSEC
0
SECTION
2
BLOCKS
0
BLOCK
5
20
100
AcDbEntity
100
AcDbBlockBegin
2
*MODEL_SPACE
0
ENDBLK
5
21
100
AcDbEntity
100
AcDbBlockEnd
0
BLOCK
5
1C
100
AcDbEntity
100
AcDbBlockBegin
2
*PAPER_SPACE
0
ENDBLK
5
1D
100
AcDbEntity
100
AcDbBlockEnd
0
ENDSEC
0
SECTION
2
ENTITIES
0
LWPOLYLINE
5
100
100
AcDbEntity
8
0
100
AcDbPolyline
90
14
70
1
43
0.0
10
10.899999999999991
20
-13.450000000000008
42
-0.41421356237309431
10
7.8999999999999915
20
-16.450000000000014
10
-299.10000000000002
20
-16.450000000000028
42
-0.41421356237309026
10
-302.10000000000002
20
-13.449999999999998
10
-302.10000000000002
20
76.549999999999997
42
-0.41421356237308982
10
-299.10000000000002
20
79.549999999999983
10
-270.5
20
79.549999999999997
10
-270.5
20
80.850000000000009
42
-0.41421356237308815
10
-267.5
20
83.850000000000023
10
-178.40000000000003
20
83.850000000000023
42
-0.41421356237308815
10
-175.40000000000003
20
80.850000000000009
10
-175.40000000000003
20
79.549999999999997
10
7.8999999999999826
20
79.549999999999983
42
-0.4142135623730957
10
10.899999999999981
20
76.549999999999997
0
CIRCLE
5
101
100
AcDbEntity
8
0
100
AcDbCircle
10
7.8999999999999897
20
76.549999999999997
30
0
40
1.5000000000000002
210
0
220
0
230
1
0
CIRCLE
5
102
100
AcDbEntity
8
0
100
AcDbCircle
10
-299.10000000000002
20
-13.449999999999985
30
0
40
1.4999999999999858
210
0
220
0
230
1
0
CIRCLE
5
103
100
AcDbEntity
8
0
100
AcDbCircle
10
-222.95000000000002
20
80.850000000000009
30
0
40
1.4999999999999858
210
0
220
0
230
1
0
CIRCLE
5
104
100
AcDbEntity
8
0
100
AcDbCircle
10
-196.76666666666671
20
-13.449999999999996
30
0
40
1.4999999999999858
210
0
220
0
230
1
0
CIRCLE
5
105
100
AcDbEntity
8
0
100
AcDbCircle
10
7.8999999999999915
20
31.550000000000004
30
0
40
1.5000000000000002
210
0
220
0
230
1
0
CIRCLE
5
106
100
AcDbEntity
8
0
100
AcDbCircle
10
-94.433333333333351
20
76.549999999999997
30
0
40
1.5000000000000036
210
0
220
0
230
1
0
CIRCLE
5
107
100
AcDbEntity
8
0
100
AcDbCircle
10
-299.10000000000002
20
31.550000000000004
30
0
40
1.4999999999999858
210
0
220
0
230
1
0
CIRCLE
5
108
100
AcDbEntity
8
0
100
AcDbCircle
10
-299.10000000000002
20
76.549999999999983
30
0
40
1.4999999999999858
210
0
220
0
230
1
0
CIRCLE
5
109
100
AcDbEntity
8
0
100
AcDbCircle
10
-94.433333333333351
20
-13.449999999999996
30
0
40
1.5000000000000036
210
0
220
0
230
1
0
CIRCLE
5
110
100
AcDbEntity
8
0
100
AcDbCircle
10
7.899999999999987
20
-13.450000000000008
30
0
40
1.5000000000000002
210
0
220
0
230
1
0
LWPOLYLINE
5
111
100
AcDbEntity
8
0
100
AcDbPolyline
90
8
70
1
43
0.0
10
-184.10000000000002
20
2.1000000000000001
42
-0.41421356237302531
10
-184.60000000000002
20
1.6000000000000003
10
-197.60000000000002
20
1.5999999999999994
42
-0.41421356237313295
10
-198.10000000000002
20
2.0999999999999996
10
-198.10000000000005
20
15.1
42
-0.4142135623730781
10
-197.60000000000002
20
15.600000000000001
10
-184.60000000000002
20
15.599999999999984
42
-0.41421356237312235
10
-184.09999999999999
20
15.1
0
LWPOLYLINE
5
112
100
AcDbEntity
8
0
100
AcDbPolyline
90
8
70
1
43
0.0
10
-165.90000000000003
20
2.1000000000000001
42
-0.41421356237302531
10
-166.40000000000001
20
1.6000000000000003
10
-179.40000000000001
20
1.5999999999999994
42
-0.41421356237313295
10
-179.90000000000003
20
2.0999999999999996
10
-179.90000000000006
20
15.1
42
-0.4142135623730781
10
-179.40000000000001
20
15.600000000000001
10
-166.40000000000001
20
15.599999999999984
42
-0.41421356237312235
10
-165.90000000000001
20
15.1
0
LWPOLYLINE
5
113
100
AcDbEntity
8
0
100
AcDbPolyline
90
8
70
1
43
0.0
10
-202.30000000000004
20
2.1000000000000001
42
-0.41421356237302531
10
-202.80000000000001
20
1.6000000000000003
10
-215.80000000000001
20
1.5999999999999994
42
-0.41421356237313295
10
-216.30000000000001
20
2.0999999999999996
10
-216.30000000000007
20
15.1
42
-0.4142135623730781
10
-215.80000000000001
20
15.600000000000001
10
-202.80000000000001
20
15.599999999999984
42
-0.41421356237312235
10
-202.30000000000001
20
15.1
0
LWPOLYLINE
5
114
100
AcDbEntity
8
0
100
AcDbPolyline
90
8
70
1
43
0.0
10
-147.69999999999999
20
2.0999999999999996
10
-147.69999999999999
20
15.1
42
0.41421356237309503
10
-148.19999999999999
20
15.600000000000001
10
-161.20000000000002
20
15.600000000000001
42
0.4142135623730781
10
-161.70000000000002
20
15.1
10
-161.70000000000002
20
2.1000000000000001
42
0.41421356237313295
10
-161.20000000000002
20
1.6000000000000003
10
-148.19999999999999
20
1.6000000000000003
42
0.41421356237310508
0
LWPOLYLINE
5
115
100
AcDbEntity
8
0
100
AcDbPolyline
90
8
70
1
43
0.0
10
-256.89999999999998
20
2.0999999999999996
10
-256.89999999999998
20
15.1
42
0.41421356237313273
10
-257.39999999999998
20
15.600000000000007
10
-270.39999999999998
20
15.600000000000001
42
0.41421356237304691
10
-270.89999999999998
20
15.1
10
-270.89999999999998
20
2.1000000000000001
42
0.41421356237310175
10
-270.39999999999998
20
1.6000000000000003
10
-257.39999999999998
20
1.6000000000000003
42
0.41421356237307699
0
LWPOLYLINE
5
116
100
AcDbEntity
8
0
100
AcDbPolyline
90
8
70
1
43
0.0
10
-129.49999999999997
20
2.1000000000000001
42
-0.41421356237310542
10
-130
20
1.6000000000000003
10
-143
20
1.5999999999999943
42
-0.41421356237309437
10
-143.5
20
2.0999999999999996
10
-143.5
20
15.1
42
-0.41421356237310675
10
-143
20
15.600000000000001
10
-130
20
15.600000000000007
42
-0.41421356237309503
10
-129.5
20
15.1
0
LWPOLYLINE
5
117
100
AcDbEntity
8
0
100
AcDbPolyline
90
8
70
1
43
0.0
10
-111.29999999999997
20
2.1000000000000001
42
-0.41421356237310542
10
-111.8
20
1.6000000000000003
10
-124.80000000000001
20
1.5999999999999943
42
-0.41421356237309437
10
-125.30000000000001
20
2.0999999999999996
10
-125.30000000000001
20
15.1
42
-0.41421356237310675
10
-124.80000000000001
20
15.600000000000001
10
-111.8
20
15.600000000000007
42
-0.41421356237309503
10
-111.29999999999998
20
15.1
0
LWPOLYLINE
5
118
100
AcDbEntity
8
0
100
AcDbPolyline
90
8
70
1
43
0.0
10
-84.000000000000028
20
53.70000000000001
42
-0.41421356237310542
10
-84.500000000000014
20
53.20000000000001
10
-97.5
20
53.199999999999996
42
-0.41421356237310025
10
-98
20
53.70000000000001
10
-98
20
66.700000000000003
42
-0.41421356237308982
10
-97.5
20
67.200000000000003
10
-84.500000000000014
20
67.200000000000017
42
-0.41421356237307422
10
-84
20
66.700000000000003
0
LWPOLYLINE
5
119
100
AcDbEntity
8
0
100
AcDbPolyline
90
8
70
1
43
0.0
10
-56.70000000000001
20
2.1000000000000001
42
-0.41421356237309687
10
-57.200000000000003
20
1.6000000000000003
10
-70.200000000000003
20
1.6000000000000032
42
-0.41421356237309437
10
-70.700000000000003
20
2.0999999999999996
10
-70.700000000000003
20
15.1
42
-0.4142135623730937
10
-70.200000000000003
20
15.600000000000001
10
-57.200000000000003
20
15.600000000000003
42
-0.41421356237309764
10
-56.70000000000001
20
15.1
0
LWPOLYLINE
5
120
100
AcDbEntity
8
0
100
AcDbPolyline
90
8
70
1
43
0.0
10
-74.900000000000006
20
2.1000000000000001
42
-0.41421356237309687
10
-75.400000000000006
20
1.6000000000000003
10
-88.40000000000002
20
1.5999999999999943
42
-0.41421356237307355
10
-88.90000000000002
20
2.0999999999999996
10
-88.900000000000006
20
15.1
42
-0.41421356237307555
10
-88.40000000000002
20
15.600000000000001
10
-75.400000000000006
20
15.600000000000003
42
-0.41421356237309764
10
-74.900000000000006
20
15.1
0
LWPOLYLINE
5
121
100
AcDbEntity
8
0
100
AcDbPolyline
90
8
70
1
43
0.0
10
-238.70000000000002
20
2.0999999999999996
10
-238.70000000000002
20
15.1
42
0.41421356237312235
10
-239.20000000000002
20
15.600000000000001
10
-252.19999999999999
20
15.600000000000001
42
0.41421356237304691
10
-252.69999999999999
20
15.1
10
-252.69999999999999
20
2.1000000000000001
42
0.41421356237310175
10
-252.19999999999999
20
1.6000000000000003
10
-239.20000000000002
20
1.6000000000000003
42
0.41421356237302498
0
LWPOLYLINE
5
122
100
AcDbEntity
8
0
100
AcDbPolyline
90
8
70
1
43
0.0
10
-88.40000000000002
20
36
42
-0.41421356237307161
10
-88.90000000000002
20
36.5
10
-88.900000000000006
20
49.5
42
-0.41421356237310025
10
-88.40000000000002
20
50
10
-75.400000000000006
20
50
42
-0.41421356237309503
10
-74.900000000000006
20
49.5
10
-74.90000000000002
20
36.5
42
-0.41421356237309764
10
-75.400000000000006
20
36.000000000000007
0
LWPOLYLINE
5
123
100
AcDbEntity
8
0
100
AcDbPolyline
90
8
70
1
43
0.0
10
-2.1000000000000001
20
2.1000000000000001
42
-0.41421356237309492
10
-2.6000000000000001
20
1.6000000000000003
10
-15.600000000000001
20
1.5999999999999988
42
-0.41421356237309309
10
-16.100000000000001
20
2.0999999999999996
10
-16.099999999999998
20
15.1
42
-0.41421356237309115
10
-15.600000000000001
20
15.600000000000001
10
-2.5999999999999979
20
15.600000000000001
42
-0.41421356237309115
10
-2.1000000000000001
20
15.1
0
LWPOLYLINE
5
124
100
AcDbEntity
8
0
100
AcDbPolyline
90
8
70
1
43
0.0
10
-33.799999999999997
20
1.6000000000000012
42
-0.41421356237309553
10
-34.299999999999997
20
2.0999999999999996
10
-34.299999999999997
20
15.1
42
-0.41421356237309243
10
-33.799999999999997
20
15.600000000000001
10
-20.800000000000001
20
15.600000000000001
42
-0.41421356237309631
10
-20.300000000000004
20
15.1
10
-20.300000000000004
20
2.0999999999999996
42
-0.41421356237309503
10
-20.800000000000001
20
1.6000000000000003
0
LWPOLYLINE
5
125
100
AcDbEntity
8
0
100
AcDbPolyline
90
8
70
1
43
0.0
10
-256.89999999999992
20
19.300000000000001
42
-0.4142135623730781
10
-257.39999999999998
20
18.800000000000001
10
-270.39999999999998
20
18.800000000000018
42
-0.41421356237312362
10
-270.89999999999998
20
19.300000000000001
10
-270.89999999999998
20
32.299999999999997
42
-0.41421356237305079
10
-270.39999999999998
20
32.799999999999997
10
-257.39999999999998
20
32.800000000000004
42
-0.41421356237313406
10
-256.89999999999998
20
32.299999999999997
0
LWPOLYLINE
5
126
100
AcDbEntity
8
0
100
AcDbPolyline
90
8
70
1
43
0.0
10
-156.80000000000004
20
19.300000000000001
42
-0.41421356237307555
10
-157.30000000000001
20
18.800000000000001
10
-170.30000000000001
20
18.800000000000018
42
-0.41421356237312362
10
-170.80000000000001
20
19.300000000000001
10
-170.80000000000001
20
32.299999999999997
42
-0.41421356237305079
10
-170.30000000000001
20
32.799999999999997
10
-157.30000000000004
20
32.800000000000004
42
-0.4142135623730846
10
-156.80000000000001
20
32.299999999999997
0
LWPOLYLINE
5
127
100
AcDbEntity
8
0
100
AcDbPolyline
90
8
70
1
43
0.0
10
-11.199999999999999
20
36.5
42
-0.41421356237309631
10
-11.699999999999999
20
36.000000000000007
10
-24.700000000000003
20
36.000000000000007
42
-0.41421356237309503
10
-25.199999999999999
20
36.5
10
-25.199999999999999
20
49.5
42
-0.41421356237309503
10
-24.700000000000003
20
50
10
-11.699999999999999
20
50
42
-0.4142135623730937
10
-11.199999999999999
20
49.5
0
LWPOLYLINE
5
128
100
AcDbEntity
8
0
100
AcDbPolyline
90
8
70
1
43
0.0
10
-238.70000000000002
20
19.300000000000001
42
-0.41421356237304691
10
-239.20000000000002
20
18.800000000000001
10
-252.19999999999999
20
18.800000000000018
42
-0.41421356237312362
10
-252.69999999999999
20
19.300000000000001
10
-252.69999999999999
20
32.299999999999997
42
-0.41421356237305079
10
-252.19999999999999
20
32.799999999999997
10
-239.20000000000002
20
32.800000000000018
42
-0.41421356237310281
10
-238.70000000000002
20
32.299999999999997
0
LWPOLYLINE
5
129
100
AcDbEntity
8
0
100
AcDbPolyline
90
8
70
1
43
0.0
10
-211.25
20
18.800000000000018
42
-0.41421356237312362
10
-211.75
20
19.300000000000001
10
-211.75
20
32.299999999999997
42
-0.41421356237305079
10
-211.25
20
32.799999999999997
10
-198.25000000000003
20
32.800000000000018
42
-0.41421356237310281
10
-197.75000000000003
20
32.299999999999997
10
-197.75000000000003
20
19.300000000000001
42
-0.41421356237304691
10
-198.25000000000003
20
18.800000000000001
0
LWPOLYLINE
5
130
100
AcDbEntity
8
0
100
AcDbPolyline
90
8
70
1
43
0.0
10
-102.20000000000002
20
19.300000000000001
42
-0.41421356237307555
10
-102.70000000000002
20
18.800000000000001
10
-115.7
20
18.799999999999994
42
-0.41421356237309631
10
-116.20000000000002
20
19.300000000000001
10
-116.20000000000002
20
32.299999999999997
42
-0.41421356237310802
10
-115.7
20
32.799999999999997
10
-102.70000000000002
20
32.800000000000004
42
-0.41421356237307422
10
-102.2
20
32.299999999999997
0
LWPOLYLINE
5
131
100
AcDbEntity
8
0
100
AcDbPolyline
90
8
70
1
43
0.0
10
-152.10000000000002
20
18.799999999999994
42
-0.41421356237309631
10
-152.60000000000002
20
19.300000000000001
10
-152.60000000000002
20
32.299999999999997
42
-0.41421356237310802
10
-152.10000000000002
20
32.799999999999997
10
-139.09999999999999
20
32.800000000000004
42
-0.41421356237309503
10
-138.59999999999999
20
32.299999999999997
10
-138.59999999999999
20
19.300000000000001
42
-0.41421356237310675
10
-139.09999999999999
20
18.800000000000001
0
LWPOLYLINE
5
132
100
AcDbEntity
8
0
100
AcDbPolyline
90
8
70
1
43
0.0
10
-65.799999999999997
20
19.300000000000001
42
-0.4142135623730937
10
-66.299999999999997
20
18.800000000000001
10
-79.299999999999997
20
18.799999999999997
42
-0.41421356237309764
10
-79.799999999999997
20
19.300000000000001
10
-79.799999999999983
20
32.299999999999997
42
-0.41421356237309764
10
-79.299999999999997
20
32.799999999999997
10
-66.299999999999997
20
32.799999999999997
42
-0.41421356237309503
10
-65.799999999999997
20
32.299999999999997
0
LWPOLYLINE
5
133
100
AcDbEntity
8
0
100
AcDbPolyline
90
8
70
1
43
0.0
10
-29.400000000000006
20
19.300000000000001
42
-0.41421356237309503
10
-29.900000000000002
20
18.800000000000001
10
-42.899999999999999
20
18.800000000000004
42
-0.41421356237309503
10
-43.399999999999999
20
19.300000000000001
10
-43.399999999999999
20
32.299999999999997
42
-0.41421356237309503
10
-42.899999999999999
20
32.799999999999997
10
-29.900000000000002
20
32.799999999999997
42
-0.41421356237309503
10
-29.400000000000006
20
32.299999999999997
0
LWPOLYLINE
5
134
100
AcDbEntity
8
0
100
AcDbPolyline
90
8
70
1
43
0.0
10
-133.90000000000001
20
18.799999999999994
42
-0.41421356237309631
10
-134.40000000000001
20
19.300000000000001
10
-134.40000000000001
20
32.299999999999997
42
-0.41421356237310802
10
-133.90000000000001
20
32.799999999999997
10
-120.90000000000003
20
32.800000000000004
42
-0.4142135623730846
10
-120.40000000000001
20
32.299999999999997
10
-120.40000000000003
20
19.300000000000001
42
-0.41421356237307555
10
-120.90000000000002
20
18.800000000000001
0
LWPOLYLINE
5
135
100
AcDbEntity
8
0
100
AcDbPolyline
90
8
70
1
43
0.0
10
-61.100000000000001
20
18.800000000000004
42
-0.41421356237309503
10
-61.600000000000001
20
19.300000000000001
10
-61.600000000000001
20
32.299999999999997
42
-0.41421356237309503
10
-61.100000000000001
20
32.799999999999997
10
-48.100000000000009
20
32.800000000000004
42
-0.41421356237309764
10
-47.600000000000009
20
32.299999999999997
10
-47.600000000000009
20
19.300000000000001
42
-0.41421356237309631
10
-48.100000000000009
20
18.800000000000001
0
LWPOLYLINE
5
136
100
AcDbEntity
8
0
100
AcDbPolyline
90
8
70
1
43
0.0
10
-275.10000000000002
20
2.1000000000000001
42
-0.41421356237302531
10
-275.60000000000002
20
1.6000000000000003
10
-288.60000000000002
20
1.5999999999999994
42
-0.41421356237313295
10
-289.10000000000002
20
2.0999999999999996
10
-289.10000000000008
20
15.1
42
-0.4142135623730781
10
-288.60000000000002
20
15.600000000000001
10
-275.60000000000002
20
15.599999999999984
42
-0.41421356237312235
10
-275.10000000000002
20
15.1
0
LWPOLYLINE
5
137
100
AcDbEntity
8
0
100
AcDbPolyline
90
8
70
1
43
0.0
10
-97.5
20
18.799999999999994
42
-0.41421356237309631
10
-98
20
19.300000000000001
10
-98
20
32.299999999999997
42
-0.41421356237310802
10
-97.5
20
32.799999999999997
10
-84.500000000000014
20
32.800000000000004
42
-0.41421356237307422
10
-84
20
32.299999999999997
10
-84.000000000000028
20
19.300000000000001
42
-0.41421356237307555
10
-84.500000000000014
20
18.800000000000001
0
LWPOLYLINE
5
138
100
AcDbEntity
8
0
100
AcDbPolyline
90
8
70
1
43
0.0
10
-6.6500000000000004
20
19.300000000000001
42
-0.41421356237309243
10
-7.1500000000000004
20
18.800000000000001
10
-20.149999999999999
20
18.800000000000001
42
-0.41421356237309631
10
-20.649999999999999
20
19.300000000000001
10
-20.649999999999999
20
32.299999999999997
42
-0.41421356237309503
10
-20.150000000000002
20
32.799999999999997
10
-7.1499999999999986
20
32.800000000000004
42
-0.41421356237309243
10
-6.6500000000000004
20
32.299999999999997
0
LWPOLYLINE
5
139
100
AcDbEntity
8
0
100
AcDbPolyline
90
8
70
1
43
0.0
10
-161.20000000000002
20
53.200000000000003
42
-0.41421356237313667
10
-161.70000000000002
20
53.70000000000001
10
-161.70000000000005
20
66.700000000000003
42
-0.41421356237307422
10
-161.20000000000002
20
67.200000000000003
10
-148.19999999999999
20
67.200000000000017
42
-0.41421356237309503
10
-147.69999999999999
20
66.700000000000003
10
-147.69999999999999
20
53.70000000000001
42
-0.41421356237310542
10
-148.19999999999999
20
53.20000000000001
0
LWPOLYLINE
5
140
100
AcDbEntity
8
0
100
AcDbPolyline
90
8
70
1
43
0.0
10
-93.099999999999994
20
36.5
42
-0.41421356237310542
10
-93.599999999999994
20
36.000000000000007
10
-106.59999999999999
20
36
42
-0.41421356237309243
10
-107.10000000000001
20
36.5
10
-107.10000000000001
20
49.5
42
-0.41421356237308982
10
-106.59999999999999
20
50
10
-93.599999999999994
20
50.000000000000007
42
-0.41421356237309503
10
-93.099999999999994
20
49.5
0
LWPOLYLINE
5
141
100
AcDbEntity
8
0
100
AcDbPolyline
90
8
70
1
43
0.0
10
-56.70000000000001
20
53.70000000000001
42
-0.41421356237310542
10
-57.200000000000003
20
53.20000000000001
10
-70.200000000000003
20
53.20000000000001
42
-0.41421356237309503
10
-70.700000000000003
20
53.70000000000001
10
-70.700000000000003
20
66.700000000000003
42
-0.41421356237309503
10
-70.200000000000003
20
67.200000000000003
10
-57.200000000000003
20
67.200000000000003
42
-0.41421356237309503
10
-56.70000000000001
20
66.700000000000003
0
LWPOLYLINE
5
142
100
AcDbEntity
8
0
100
AcDbPolyline
90
8
70
1
43
0.0
10
-275.10000000000002
20
36.5
42
-0.41421356237304563
10
-275.60000000000002
20
36.000000000000007
10
-288.60000000000002
20
36.000000000000007
42
-0.41421356237313145
10
-289.10000000000002
20
36.5
10
-289.10000000000008
20
49.5
42
-0.41421356237307422
10
-288.60000000000002
20
50
10
-275.60000000000002
20
49.999999999999986
42
-0.41421356237312101
10
-275.10000000000002
20
49.5
0
LWPOLYLINE
5
143
100
AcDbEntity
8
0
100
AcDbPolyline
90
8
70
1
43
0.0
10
-170.45000000000002
20
53.70000000000001
42
-0.4142135623730222
10
-170.94999999999999
20
53.20000000000001
10
-183.94999999999999
20
53.200000000000003
42
-0.41421356237313667
10
-184.44999999999999
20
53.70000000000001
10
-184.45000000000005
20
66.700000000000003
42
-0.41421356237307422
10
-183.94999999999999
20
67.200000000000003
10
-170.94999999999999
20
67.199999999999989
42
-0.41421356237312101
10
-170.44999999999999
20
66.700000000000003
0
LWPOLYLINE
5
144
100
AcDbEntity
8
0
100
AcDbPolyline
90
8
70
1
43
0.0
10
-188.65000000000003
20
36.5
10
-188.65000000000003
20
49.5
42
0.41421356237313145
10
-189.15000000000003
20
50
10
-202.15000000000003
20
50
42
0.4142135623730222
10
-202.65000000000003
20
49.5
10
-202.65000000000003
20
36.5
42
0.41421356237310025
10
-202.15000000000003
20
36.000000000000007
10
-189.15000000000003
20
36.000000000000007
42
0.41421356237307683
0
LWPOLYLINE
5
145
100
AcDbEntity
8
0
100
AcDbPolyline
90
8
70
1
43
0.0
10
-215.94999999999996
20
58.000000000000007
42
-0.41421356237307422
10
-216.44999999999999
20
57.500000000000007
10
-229.44999999999999
20
57.500000000000014
42
-0.41421356237312623
10
-229.95000000000002
20
58.000000000000007
10
-229.94999999999999
20
71
42
-0.4142135623730222
10
-229.44999999999999
20
71.5
10
-216.44999999999999
20
71.5
42
-0.41421356237313145
10
-215.94999999999999
20
71
0
LWPOLYLINE
5
146
100
AcDbEntity
8
0
100
AcDbPolyline
90
8
70
1
43
0.0
10
-234.15000000000003
20
58.000000000000007
10
-234.15000000000003
20
71
42
0.41421356237312101
10
-234.65000000000003
20
71.5
10
-247.65000000000001
20
71.5
42
0.4142135623730222
10
-248.15000000000001
20
71
10
-248.15000000000001
20
58.000000000000007
42
0.41421356237312623
10
-247.65000000000001
20
57.500000000000007
10
-234.65000000000003
20
57.500000000000007
42
0.4142135623730222
0
LWPOLYLINE
5
147
100
AcDbEntity
8
0
100
AcDbPolyline
90
8
70
1
43
0.0
10
-275.10000000000002
20
53.70000000000001
42
-0.4142135623730222
10
-275.60000000000002
20
53.20000000000001
10
-288.60000000000002
20
53.200000000000003
42
-0.41421356237313667
10
-289.10000000000002
20
53.70000000000001
10
-289.10000000000008
20
66.700000000000003
42
-0.41421356237307422
10
-288.60000000000002
20
67.200000000000003
10
-275.60000000000002
20
67.199999999999989
42
-0.41421356237312101
10
-275.10000000000002
20
66.700000000000003
0
LWPOLYLINE
5
148
100
AcDbEntity
8
0
100
AcDbPolyline
90
8
70
1
43
0.0
10
-256.89999999999992
20
36.5
42
-0.41421356237307683
10
-257.39999999999998
20
36.000000000000007
10
-270.39999999999998
20
35.999999999999986
42
-0.41421356237310025
10
-270.89999999999998
20
36.5
10
-270.89999999999998
20
49.5
42
-0.4142135623730222
10
-270.39999999999998
20
50
10
-257.39999999999998
20
50
42
-0.41421356237313145
10
-256.89999999999998
20
49.5
0
LWPOLYLINE
5
149
100
AcDbEntity
8
0
100
AcDbPolyline
90
8
70
1
43
0.0
10
-215.94999999999996
20
40.799999999999997
42
-0.41421356237307422
10
-216.44999999999999
20
40.300000000000004
10
-229.44999999999999
20
40.300000000000011
42
-0.41421356237312623
10
-229.95000000000002
20
40.799999999999997
10
-229.94999999999999
20
53.799999999999997
42
-0.4142135623730222
10
-229.44999999999999
20
54.299999999999997
10
-216.44999999999999
20
54.299999999999997
42
-0.41421356237313145
10
-215.94999999999999
20
53.799999999999997
0
LWPOLYLINE
5
150
100
AcDbEntity
8
0
100
AcDbPolyline
90
8
70
1
43
0.0
10
-256.89999999999992
20
53.70000000000001
42
-0.41421356237307422
10
-257.39999999999998
20
53.20000000000001
10
-270.39999999999998
20
53.200000000000017
42
-0.41421356237312623
10
-270.89999999999998
20
53.70000000000001
10
-270.89999999999998
20
66.700000000000003
42
-0.4142135623730222
10
-270.39999999999998
20
67.200000000000003
10
-257.39999999999998
20
67.200000000000003
42
-0.41421356237313145
10
-256.89999999999998
20
66.700000000000003
0
LWPOLYLINE
5
151
100
AcDbEntity
8
0
100
AcDbPolyline
90
8
70
1
43
0.0
10
-197.75000000000003
20
58.000000000000007
10
-197.75000000000003
20
71
42
0.41421356237312101
10
-198.25000000000003
20
71.500000000000014
10
-211.25
20
71.5
42
0.4142135623730222
10
-211.75
20
71
10
-211.75
20
58.000000000000007
42
0.41421356237312623
10
-211.25
20
57.500000000000007
10
-198.25000000000003
20
57.500000000000007
42
0.4142135623730222
0
LWPOLYLINE
5
152
100
AcDbEntity
8
0
100
AcDbPolyline
90
8
70
1
43
0.0
10
-275.10000000000002
20
19.300000000000001
42
-0.41421356237304691
10
-275.60000000000002
20
18.800000000000001
10
-288.60000000000002
20
18.799999999999997
42
-0.41421356237313406
10
-289.10000000000002
20
19.300000000000001
10
-289.10000000000002
20
32.299999999999997
42
-0.41421356237308204
10
-288.60000000000002
20
32.799999999999997
10
-275.60000000000002
20
32.800000000000018
42
-0.41421356237310281
10
-275.10000000000002
20
32.299999999999997
0
LWPOLYLINE
5
153
100
AcDbEntity
8
0
100
AcDbPolyline
90
8
70
1
43
0.0
10
-147.69999999999999
20
36.5
10
-147.69999999999999
20
49.5
42
0.41421356237309503
10
-148.19999999999999
20
50.000000000000007
10
-161.20000000000002
20
50
42
0.41421356237307422
10
-161.70000000000002
20
49.5
10
-161.70000000000002
20
36.5
42
0.41421356237313145
10
-161.20000000000002
20
36.000000000000007
10
-148.19999999999999
20
36.000000000000007
42
0.41421356237310542
0
LWPOLYLINE
5
154
100
AcDbEntity
8
0
100
AcDbPolyline
90
8
70
1
43
0.0
10
-38.500000000000007
20
36.5
10
-38.500000000000007
20
49.5
42
0.41421356237309503
10
-39
20
50
10
-52
20
50
42
0.41421356237309503
10
-52.5
20
49.5
10
-52.5
20
36.5
42
0.41421356237309503
10
-52
20
36.000000000000007
10
-39
20
36.000000000000007
42
0.41421356237309503
0
LWPOLYLINE
5
155
100
AcDbEntity
8
0
100
AcDbPolyline
90
8
70
1
43
0.0
10
-238.70000000000002
20
36.5
42
-0.41421356237304563
10
-239.20000000000002
20
36.000000000000007
10
-252.19999999999999
20
35.999999999999986
42
-0.41421356237310025
10
-252.69999999999999
20
36.5
10
-252.69999999999996
20
49.5
42
-0.4142135623730222
10
-252.19999999999999
20
50
10
-239.20000000000002
20
49.999999999999986
42
-0.41421356237312101
10
-238.70000000000002
20
49.5
0
LWPOLYLINE
5
156
100
AcDbEntity
8
0
100
AcDbPolyline
90
8
70
1
43
0.0
10
-129.5
20
36.5
10
-129.5
20
49.5
42
0.41421356237309503
10
-130
20
50
10
-143
20
50
42
0.41421356237308982
10
-143.5
20
49.5
10
-143.5
20
36.5
42
0.41421356237309243
10
-143
20
36.000000000000007
10
-130
20
36.000000000000007
42
0.41421356237310542
0
LWPOLYLINE
5
157
100
AcDbEntity
8
0
100
AcDbPolyline
90
8
70
1
43
0.0
10
-120.40000000000003
20
53.70000000000001
42
-0.41421356237310542
10
-120.90000000000002
20
53.20000000000001
10
-133.90000000000001
20
53.199999999999996
42
-0.41421356237310025
10
-134.40000000000001
20
53.70000000000001
10
-134.40000000000001
20
66.700000000000003
42
-0.41421356237308982
10
-133.90000000000001
20
67.200000000000003
10
-120.90000000000003
20
67.200000000000017
42
-0.4142135623730846
10
-120.40000000000001
20
66.700000000000003
0
LWPOLYLINE
5
158
100
AcDbEntity
8
0
100
AcDbPolyline
90
8
70
1
43
0.0
10
-165.90000000000001
20
36.5
42
-0.41421356237304563
10
-166.40000000000001
20
36.000000000000007
10
-179.40000000000001
20
36.000000000000007
42
-0.41421356237313145
10
-179.90000000000003
20
36.5
10
-179.90000000000006
20
49.5
42
-0.41421356237307422
10
-179.40000000000001
20
50
10
-166.40000000000001
20
49.999999999999986
42
-0.41421356237312101
10
-165.90000000000001
20
49.5
0
LWPOLYLINE
5
159
100
AcDbEntity
8
0
100
AcDbPolyline
90
8
70
1
43
0.0
10
-174.99999999999997
20
19.300000000000001
42
-0.4142135623730781
10
-175.5
20
18.800000000000001
10
-188.5
20
18.800000000000018
42
-0.41421356237312362
10
-189.00000000000003
20
19.300000000000001
10
-189.00000000000003
20
32.299999999999997
42
-0.41421356237305079
10
-188.5
20
32.799999999999997
10
-175.5
20
32.800000000000004
42
-0.41421356237313406
10
-175
20
32.299999999999997
0
LWPOLYLINE
5
160
100
AcDbEntity
8
0
100
AcDbPolyline
90
8
70
1
43
0.0
10
-33.950000000000003
20
53.70000000000001
42
-0.41421356237309764
10
-34.450000000000003
20
53.20000000000001
10
-47.450000000000003
20
53.20000000000001
42
-0.41421356237309503
10
-47.950000000000003
20
53.70000000000001
10
-47.950000000000003
20
66.700000000000003
42
-0.41421356237309503
10
-47.450000000000003
20
67.200000000000003
10
-34.450000000000003
20
67.200000000000003
42
-0.41421356237309503
10
-33.950000000000003
20
66.700000000000003
0
LWPOLYLINE
5
161
100
AcDbEntity
8
0
100
AcDbPolyline
90
8
70
1
43
0.0
10
-56.700000000000017
20
36.5
42
-0.41421356237309764
10
-57.200000000000003
20
36.000000000000007
10
-70.200000000000003
20
36.000000000000007
42
-0.41421356237309503
10
-70.700000000000003
20
36.5
10
-70.700000000000003
20
49.5
42
-0.41421356237309503
10
-70.200000000000003
20
50
10
-57.200000000000003
20
50
42
-0.41421356237309503
10
-56.70000000000001
20
49.5
0
LWPOLYLINE
5
162
100
AcDbEntity
8
0
100
AcDbPolyline
90
8
70
1
43
0.0
10
-93.099999999999966
20
2.1000000000000001
42
-0.41421356237310542
10
-93.599999999999994
20
1.6000000000000003
10
-106.59999999999999
20
1.5999999999999943
42
-0.41421356237309437
10
-107.10000000000001
20
2.0999999999999996
10
-107.10000000000001
20
15.1
42
-0.41421356237310675
10
-106.59999999999999
20
15.600000000000001
10
-93.599999999999994
20
15.600000000000007
42
-0.41421356237309503
10
-93.099999999999994
20
15.1
0
LWPOLYLINE
5
163
100
AcDbEntity
8
0
100
AcDbPolyline
90
8
70
1
43
0.0
10
-6.6499999999999986
20
53.70000000000001
42
-0.41421356237309764
10
-7.1500000000000004
20
53.20000000000001
10
-20.150000000000002
20
53.200000000000017
42
-0.41421356237309764
10
-20.649999999999999
20
53.70000000000001
10
-20.649999999999999
20
66.700000000000003
42
-0.41421356237309503
10
-20.150000000000002
20
67.200000000000003
10
-7.1499999999999986
20
67.200000000000003
42
-0.41421356237309243
10
-6.6500000000000004
20
66.700000000000003
0
LWPOLYLINE
5
164
100
AcDbEntity
8
0
100
AcDbPolyline
90
8
70
1
43
0.0
10
-124.80000000000001
20
36
42
-0.41421356237309243
10
-125.30000000000001
20
36.5
10
-125.30000000000001
20
49.5
42
-0.41421356237308982
10
-124.80000000000001
20
50
10
-111.8
20
50.000000000000007
42
-0.41421356237309503
10
-111.29999999999998
20
49.5
10
-111.29999999999998
20
36.5
42
-0.41421356237310542
10
-111.8
20
36.000000000000007
0
LWPOLYLINE
5
165
100
AcDbEntity
8
0
100
AcDbPolyline
90
8
70
1
43
0.0
10
-38.500000000000007
20
2.1000000000000001
42
-0.41421356237309537
10
-39
20
1.6000000000000003
10
-52
20
1.6000000000000032
42
-0.41421356237309437
10
-52.5
20
2.0999999999999996
10
-52.5
20
15.1
42
-0.4142135623730937
10
-52
20
15.600000000000001
10
-39
20
15.600000000000001
42
-0.41421356237309631
10
-38.500000000000007
20
15.1
0
LWPOLYLINE
5
166
100
AcDbEntity
8
0
100
AcDbPolyline
90
8
70
1
43
0.0
10
-142.55000000000007
20
63.250000000000014
10
-142.55000000000007
20
56.40000000000002
10
-141.2000000000001
20
56.40000000000002
10
-141.20000000000002
20
51.749999999999943
10
-137.60000000000005
20
51.749999999999936
10
-137.60000000000014
20
56.40000000000002
10
-136.25000000000011
20
56.400000000000034
10
-136.25000000000011
20
63.250000000000014
0
LWPOLYLINE
5
167
100
AcDbEntity
8
0
100
AcDbPolyline
90
8
70
1
43
0.0
10
-33.34999999999998
20
46.050000000000011
10
-33.34999999999998
20
39.200000000000024
10
-32.000000000000014
20
39.200000000000024
10
-31.999999999999943
20
34.54999999999994
10
-28.399999999999931
20
34.549999999999926
10
-28.400000000000002
20
39.200000000000024
10
-27.050000000000011
20
39.200000000000024
10
-27.050000000000011
20
46.050000000000011
0
LWPOLYLINE
5
168
100
AcDbEntity
8
0
100
AcDbPolyline
90
8
70
1
43
0.0
10
-82.15000000000002
20
56.400000000000013
10
-80.800000000000011
20
56.400000000000006
10
-80.800000000000054
20
51.749999999999901
10
-77.200000000000045
20
51.749999999999929
10
-77.200000000000003
20
56.40000000000002
10
-75.849999999999994
20
56.40000000000002
10
-75.850000000000023
20
63.250000000000028
10
-82.15000000000002
20
63.250000000000014
0
LWPOLYLINE
5
169
100
AcDbEntity
8
0
100
AcDbPolyline
90
8
70
1
43
0.0
10
-117.20012685455356
20
56.399893178729393
10
-117.20028208228649
20
51.749893181320218
10
-113.6002820842924
20
51.749773005010908
10
-113.60012685655946
20
56.399773002420076
10
-112.25012685731167
20
56.399727936304075
10
-112.24989818850089
20
63.249727932487325
10
-118.54989818499057
20
63.24993824102863
10
-118.55012685380134
20
56.399938244845401
0
LWPOLYLINE
5
170
100
AcDbEntity
8
0
100
AcDbPolyline
90
8
70
1
43
0.0
10
-8.0006180086909708
20
39.199479657509087
10
-8.0013742043893661
20
34.549479718996288
10
-4.4013742519924559
20
34.548894277165331
10
-4.4006180562940624
20
39.198894215678109
10
-3.0506180741452176
20
39.198674674991494
10
-3.049504108439077
20
46.048674584413405
10
-9.3495040251336867
20
46.049699107617606
10
-9.350617990839817
20
39.199699198195695
0
LWPOLYLINE
5
171
100
AcDbEntity
8
0
100
AcDbPolyline
90
8
70
1
43
0.0
10
-99.850000000000009
20
63.250000000000014
10
-106.15000000000001
20
63.250000000000014
10
-106.15000000000001
20
56.400000000000006
10
-104.80000000000003
20
56.400000000000006
10
-104.79999999999995
20
51.749999999999908
10
-101.19999999999993
20
51.749999999999901
10
-101.20000000000002
20
56.400000000000006
10
-99.850000000000009
20
56.400000000000013
0
ENDSEC
0
SECTION
2
OBJECTS
0
DICTIONARY
5
C
100
AcDbDictionary
3
ACAD_GROUP
350
D
3
ACAD_MLINESTYLE
350
17
0
DICTIONARY
5
D
100
AcDbDictionary
0
DICTIONARY
5
1A
330
C
100
AcDbDictionary
0
DICTIONARY
5
17
100
AcDbDictionary
0
ENDSEC
0
EOF
