0
SECTION
2
HEADER
9
$INSUNITS
70
4
9
$ACADVER
1
AC1014
9
$HANDSEED
5
FFFF
0
ENDSEC
0
SECTION
2
TABLES
0
TABLE
2
VPORT
5
8
100
AcDbSymbolTable
0
ENDTAB
0
TABLE
2
LTYPE
5
5
100
AcDbSymbolTable
0
LTYPE
5
14
100
AcDbSymbolTableRecord
100
AcDbLinetypeTableRecord
2
BYBLOCK
70
0
0
LTYPE
5
15
100
AcDbSymbolTableRecord
100
AcDbLinetypeTableRecord
2
BYLAYER
70
0
0
ENDTAB
0
TABLE
2
LAYER
5
2
100
AcDbSymbolTable
70
2
0
LAYER
5
50
100
AcDbSymbolTableRecord
100
AcDbLayerTableRecord
2
0
70
0
6
CONTINUOUS
0
ENDTAB
0
TABLE
2
STYLE
5
3
100
AcDbSymbolTable
70
1
0
STYLE
5
11
100
AcDbSymbolTableRecord
100
AcDbTextStyleTableRecord
2
STANDARD
70
0
0
ENDTAB
0
TABLE
2
VIEW
5
6
100
AcDbSymbolTable
70
0
0
ENDTAB
0
TABLE
2
UCS
5
7
100
AcDbSymbolTable
70
0
0
ENDTAB
0
TABLE
2
APPID
5
9
100
AcDbSymbolTable
70
2
0
APPID
5
12
100
AcDbSymbolTableRecord
100
AcDbRegAppTableRecord
2
ACAD
70
0
0
ENDTAB
0
TABLE
2
DIMSTYLE
5
A
100
AcDbSymbolTable
70
1
0
ENDTAB
0
TABLE
2
BLOCK_RECORD
5
1
100
AcDbSymbolTable
70
1
0
BLOCK_RECORD
5
1F
100
AcDbSymbolTableRecord
100
AcDbBlockTableRecord
2
*MODEL_SPACE
0
BLOCK_RECORD
5
1B
100
AcDbSymbolTableRecord
100
AcDbBlockTableRecord
2
*PAPER_SPACE
0
ENDTAB
0
ENDSEC
0
SECTION
2
BLOCKS
0
BLOCK
5
20
100
AcDbEntity
100
AcDbBlockBegin
2
*MODEL_SPACE
0
ENDBLK
5
21
100
AcDbEntity
100
AcDbBlockEnd
0
BLOCK
5
1C
100
AcDbEntity
100
AcDbBlockBegin
2
*PAPER_SPACE
0
ENDBLK
5
1D
100
AcDbEntity
100
AcDbBlockEnd
0
ENDSEC
0
SECTION
2
ENTITIES
0
LWPOLYLINE
5
100
100
AcDbEntity
8
0
100
AcDbPolyline
90
12
70
1
43
0.0
10
254.40000000000003
20
-52.499999999999957
10
254.40000000000001
20
-68.699998453259468
42
0.41421356237312101
10
254.90000000000003
20
-69.199998453259454
10
291.10000000000002
20
-69.199998453259454
42
0.41421356237312101
10
291.60000000000002
20
-68.699998453259454
10
291.60000000000002
20
-0.099999999999997952
42
0.41421356237311757
10
291.10000000000002
20
0.40000000000000924
10
236.70000000000002
20
0.39999999999999925
42
0.4142135623730957
10
236.20000000000002
20
-0.099999999999997868
10
236.20000000000016
20
-51.5
42
0.41421356237309503
10
236.70000000000016
20
-52.000000000000014
10
253.90000000000001
20
-51.999999999999957
42
-0.41421356237311063
0
CIRCLE
5
101
100
AcDbEntity
8
0
100
AcDbCircle
10
-7.8999999999999897
20
-76.549999999999983
30
0
40
1.5000000000000002
210
0
220
0
230
1
0
CIRCLE
5
102
100
AcDbEntity
8
0
100
AcDbCircle
10
222.95000000000002
20
-80.850000000000023
30
0
40
1.4999999999999858
210
0
220
0
230
1
0
CIRCLE
5
103
100
AcDbEntity
8
0
100
AcDbCircle
10
299.10000000000002
20
-31.550000000000008
30
0
40
1.4999999999999858
210
0
220
0
230
1
0
CIRCLE
5
104
100
AcDbEntity
8
0
100
AcDbCircle
10
94.433333333333366
20
13.449999999999998
30
0
40
1.5000000000000036
210
0
220
0
230
1
0
LWPOLYLINE
5
105
100
AcDbEntity
8
0
100
AcDbPolyline
90
16
70
1
43
0.0
10
210.20000000000005
20
-34.79999999999999
10
218.29999999999998
20
-34.799999999999997
42
0.41421356237309243
10
218.79999999999998
20
-34.300000000000004
10
218.80000000000001
20
-0.099999999999997952
42
0.41421356237311768
10
218.29999999999998
20
0.40000000000000924
10
0.10000000000001572
20
0.39999999999999925
42
0.41421356237310292
10
-0.39999999999999147
20
-0.099999999999997868
10
-0.39999999999999925
20
-68.700000000000017
42
0.41421356237310419
10
0.10000000000001563
20
-69.200000000000017
10
190.99999999999997
20
-69.200000000000017
42
0.41421356237313145
10
191.5
20
-68.700000000000017
10
191.5
20
-52.500000000000007
42
-0.41421356237313667
10
192
20
-52.000000000000014
10
209.20000000000002
20
-52.000000000000014
42
0.41421356237312101
10
209.70000000000005
20
-51.500000000000014
10
209.70000000000002
20
-35.300000000000004
42
-0.41421356237310281
0
CIRCLE
5
106
100
AcDbEntity
8
0
100
AcDbCircle
10
299.10000000000002
20
13.449999999999985
30
0
40
1.4999999999999858
210
0
220
0
230
1
0
LWPOLYLINE
5
107
100
AcDbEntity
8
0
100
AcDbPolyline
90
16
70
1
43
0.0
10
212.95000000000002
20
-55.000000953674316
10
195.75000000000003
20
-55.000000953674331
42
0.41421356237312101
10
195.25
20
-55.500000953674331
10
195.25
20
-73.000000000000014
42
0.41421356237312101
10
195.75000000000003
20
-73.500000000000028
10
250.15000000000001
20
-73.500000000000014
42
0.41421356237312101
10
250.65000000000003
20
-73.000000000000014
10
250.65000000000001
20
-55.500000953674309
42
0.41421356237312101
10
250.15000000000001
20
-55.000000953674331
10
232.95000000000002
20
-55.000000953674387
42
-0.4142135623730846
10
232.44999999999999
20
-54.500000953674359
10
232.45000000000002
20
-38.800000000000004
42
0.41421356237309243
10
231.94999999999999
20
-38.299999999999997
10
213.95000000000005
20
-38.300000000000004
42
0.41421356237309243
10
213.45000000000002
20
-38.800000000000004
10
213.45000000000005
20
-54.500000953674331
42
-0.41421356237314705
0
CIRCLE
5
108
100
AcDbEntity
8
0
100
AcDbCircle
10
299.10000000000002
20
-76.549999999999983
30
0
40
1.4999999999999858
210
0
220
0
230
1
0
CIRCLE
5
109
100
AcDbEntity
8
0
100
AcDbCircle
10
94.433333333333366
20
-76.549999999999983
30
0
40
1.5000000000000036
210
0
220
0
230
1
0
CIRCLE
5
110
100
AcDbEntity
8
0
100
AcDbCircle
10
-7.899999999999987
20
13.450000000000006
30
0
40
1.5000000000000002
210
0
220
0
230
1
0
CIRCLE
5
111
100
AcDbEntity
8
0
100
AcDbCircle
10
-7.8999999999999915
20
-31.550000000000008
30
0
40
1.5000000000000002
210
0
220
0
230
1
0
CIRCLE
5
112
100
AcDbEntity
8
0
100
AcDbCircle
10
196.76666666666674
20
13.449999999999998
30
0
40
1.4999999999999858
210
0
220
0
230
1
0
LWPOLYLINE
5
113
100
AcDbEntity
8
0
100
AcDbPolyline
90
14
70
1
43
0.0
10
-7.8999999999999915
20
-79.549999999999969
42
-0.41421356237309481
10
-10.899999999999981
20
-76.549999999999983
10
-10.900000000000002
20
13.450000000000015
42
-0.4142135623730937
10
-7.8999999999999915
20
16.450000000000024
10
299.10000000000002
20
16.449999999999957
42
-0.4142135623730937
10
302.10000000000002
20
13.449999999999998
10
302.10000000000002
20
-76.549999999999983
42
-0.41421356237309503
10
299.10000000000002
20
-79.549999999999997
10
270.5
20
-79.549999999999983
10
270.5
20
-80.850000000000023
42
-0.41421356237308815
10
267.5
20
-83.850000000000037
10
178.40000000000003
20
-83.850000000000037
42
-0.41421356237308815
10
175.40000000000003
20
-80.850000000000023
10
175.40000000000003
20
-79.549999999999983
0
ENDSEC
0
SECTION
2
OBJECTS
0
DICTIONARY
5
C
100
AcDbDictionary
3
ACAD_GROUP
350
D
3
ACAD_MLINESTYLE
350
17
0
DICTIONARY
5
D
100
AcDbDictionary
0
DICTIONARY
5
1A
330
C
100
AcDbDictionary
0
DICTIONARY
5
17
100
AcDbDictionary
0
ENDSEC
0
EOF
