0
SECTION
2
HEADER
9
$INSUNITS
70
4
9
$ACADVER
1
AC1014
9
$HANDSEED
5
FFFF
0
ENDSEC
0
SECTION
2
TABLES
0
TABLE
2
VPORT
5
8
100
AcDbSymbolTable
0
ENDTAB
0
TABLE
2
LTYPE
5
5
100
AcDbSymbolTable
0
LTYPE
5
14
100
AcDbSymbolTableRecord
100
AcDbLinetypeTableRecord
2
BYBLOCK
70
0
0
LTYPE
5
15
100
AcDbSymbolTableRecord
100
AcDbLinetypeTableRecord
2
BYLAYER
70
0
0
ENDTAB
0
TABLE
2
LAYER
5
2
100
AcDbSymbolTable
70
2
0
LAYER
5
50
100
AcDbSymbolTableRecord
100
AcDbLayerTableRecord
2
0
70
0
6
CONTINUOUS
0
ENDTAB
0
TABLE
2
STYLE
5
3
100
AcDbSymbolTable
70
1
0
STYLE
5
11
100
AcDbSymbolTableRecord
100
AcDbTextStyleTableRecord
2
STANDARD
70
0
0
ENDTAB
0
TABLE
2
VIEW
5
6
100
AcDbSymbolTable
70
0
0
ENDTAB
0
TABLE
2
UCS
5
7
100
AcDbSymbolTable
70
0
0
ENDTAB
0
TABLE
2
APPID
5
9
100
AcDbSymbolTable
70
2
0
APPID
5
12
100
AcDbSymbolTableRecord
100
AcDbRegAppTableRecord
2
ACAD
70
0
0
ENDTAB
0
TABLE
2
DIMSTYLE
5
A
100
AcDbSymbolTable
70
1
0
ENDTAB
0
TABLE
2
BLOCK_RECORD
5
1
100
AcDbSymbolTable
70
1
0
BLOCK_RECORD
5
1F
100
AcDbSymbolTableRecord
100
AcDbBlockTableRecord
2
*MODEL_SPACE
0
BLOCK_RECORD
5
1B
100
AcDbSymbolTableRecord
100
AcDbBlockTableRecord
2
*PAPER_SPACE
0
ENDTAB
0
ENDSEC
0
SECTION
2
BLOCKS
0
BLOCK
5
20
100
AcDbEntity
100
AcDbBlockBegin
2
*MODEL_SPACE
0
ENDBLK
5
21
100
AcDbEntity
100
AcDbBlockEnd
0
BLOCK
5
1C
100
AcDbEntity
100
AcDbBlockBegin
2
*PAPER_SPACE
0
ENDBLK
5
1D
100
AcDbEntity
100
AcDbBlockEnd
0
ENDSEC
0
SECTION
2
ENTITIES
0
LWPOLYLINE
5
100
100
AcDbEntity
8
0
100
AcDbPolyline
90
14
70
1
43
0.0
10
178.40000000000003
20
-74.549999999999955
42
-0.41421356237310542
10
179.40000000000003
20
-75.549999999999926
10
179.40000000000003
20
-78.850000000000023
10
266.5
20
-78.850000000000023
10
266.5
20
-75.549999999999926
42
-0.41421356237310542
10
267.5
20
-74.549999999999926
10
296.59999999999997
20
-74.549999999999926
42
0.41421356237314705
10
297.09999999999997
20
-74.049999999999955
10
297.10000000000002
20
10.950000000000014
42
0.41421356237313667
10
296.60000000000002
20
11.450000000000031
10
-5.3999999999999897
20
11.450000000000012
42
0.41421356237309243
10
-5.8999999999999986
20
10.950000000000015
10
-5.8999999999999986
20
-74.049999999999926
42
0.41421356237309048
10
-5.3999999999999915
20
-74.549999999999926
0
LWPOLYLINE
5
101
100
AcDbEntity
8
0
100
AcDbPolyline
90
14
70
1
43
0.0
10
175.40000000000003
20
-80.850000000000023
10
175.40000000000003
20
-79.549999999999983
10
-7.8999999999999915
20
-79.549999999999969
42
-0.41421356237308932
10
-10.899999999999963
20
-76.549999999999983
10
-10.899999999999991
20
13.450000000000017
42
-0.4142135623730942
10
-7.8999999999999915
20
16.450000000000014
10
299.10000000000002
20
16.450000000000024
42
-0.4142135623730831
10
302.10000000000002
20
13.449999999999998
10
302.10000000000002
20
-76.549999999999983
42
-0.41421356237308293
10
299.10000000000002
20
-79.549999999999983
10
270.5
20
-79.549999999999983
10
270.5
20
-80.850000000000023
42
-0.41421356237308815
10
267.5
20
-83.850000000000037
10
178.40000000000003
20
-83.850000000000037
42
-0.41421356237308815
0
CIRCLE
5
102
100
AcDbEntity
8
0
100
AcDbCircle
10
299.10000000000002
20
-31.550000000000011
30
0
40
1.4999999999999858
210
0
220
-0
230
1
0
CIRCLE
5
103
100
AcDbEntity
8
0
100
AcDbCircle
10
222.95000000000002
20
-80.850000000000023
30
0
40
1.4999999999999858
210
0
220
-0
230
1
0
CIRCLE
5
104
100
AcDbEntity
8
0
100
AcDbCircle
10
94.433333333333366
20
-76.549999999999983
30
0
40
1.5000000000000036
210
0
220
-0
230
1
0
CIRCLE
5
105
100
AcDbEntity
8
0
100
AcDbCircle
10
-7.8999999999999915
20
-31.550000000000011
30
0
40
1.5000000000000002
210
0
220
-0
230
1
0
CIRCLE
5
106
100
AcDbEntity
8
0
100
AcDbCircle
10
-7.8999999999999897
20
13.45000000000001
30
0
40
1.5000000000000002
210
0
220
-0
230
1
0
CIRCLE
5
107
100
AcDbEntity
8
0
100
AcDbCircle
10
299.09999999999997
20
-76.549999999999926
30
0
40
1.4999999999999858
210
0
220
-0
230
1
0
CIRCLE
5
108
100
AcDbEntity
8
0
100
AcDbCircle
10
-7.8999999999999595
20
-76.549999999999955
30
0
40
1.5000000000000002
210
0
220
-0
230
1
0
CIRCLE
5
109
100
AcDbEntity
8
0
100
AcDbCircle
10
299.09999999999997
20
13.449999999999946
30
0
40
1.4999999999999858
210
0
220
-0
230
1
0
CIRCLE
5
110
100
AcDbEntity
8
0
100
AcDbCircle
10
196.76666666666677
20
13.449999999999998
30
0
40
1.4999999999999858
210
0
220
-0
230
1
0
CIRCLE
5
111
100
AcDbEntity
8
0
100
AcDbCircle
10
94.433333333333366
20
13.449999999999998
30
0
40
1.5000000000000036
210
0
220
-0
230
1
0
ENDSEC
0
SECTION
2
OBJECTS
0
DICTIONARY
5
C
100
AcDbDictionary
3
ACAD_GROUP
350
D
3
ACAD_MLINESTYLE
350
17
0
DICTIONARY
5
D
100
AcDbDictionary
0
DICTIONARY
5
1A
330
C
100
AcDbDictionary
0
DICTIONARY
5
17
100
AcDbDictionary
0
ENDSEC
0
EOF
