G04 #@! TF.GenerationSoftware,KiCad,Pcbnew,(5.1.5)-3*
G04 #@! TF.CreationDate,2021-02-02T21:28:00-08:00*
G04 #@! TF.ProjectId,chocolatebarplate,63686f63-6f6c-4617-9465-626172706c61,rev?*
G04 #@! TF.SameCoordinates,Original*
G04 #@! TF.FileFunction,Legend,Bot*
G04 #@! TF.FilePolarity,Positive*
%FSLAX46Y46*%
G04 Gerber Fmt 4.6, Leading zero omitted, Abs format (unit mm)*
G04 Created by KiCad (PCBNEW (5.1.5)-3) date 2021-02-02 21:28:00*
%MOMM*%
%LPD*%
G04 APERTURE LIST*
%ADD10C,0.010000*%
G04 APERTURE END LIST*
D10*
G36*
X175763735Y-83354370D02*
G01*
X174995054Y-83643057D01*
X174662619Y-84090886D01*
X174654167Y-84187435D01*
X174559653Y-84369497D01*
X174219133Y-84486177D01*
X173547141Y-84550083D01*
X172458208Y-84573824D01*
X172027232Y-84575000D01*
X170573338Y-84612652D01*
X169572568Y-84743748D01*
X168953042Y-84995504D01*
X168642879Y-85395136D01*
X168568750Y-85884419D01*
X168661553Y-86327076D01*
X168990570Y-86636102D01*
X169631718Y-86837291D01*
X170660909Y-86956440D01*
X171887796Y-87012196D01*
X173108318Y-87059556D01*
X173895643Y-87128977D01*
X174345733Y-87239513D01*
X174554549Y-87410216D01*
X174604356Y-87551563D01*
X174597274Y-87750046D01*
X174429118Y-87882386D01*
X174014984Y-87961727D01*
X173269966Y-88001213D01*
X172109159Y-88013989D01*
X171613464Y-88014584D01*
X170344139Y-88037385D01*
X169233672Y-88099278D01*
X168410139Y-88190493D01*
X168022189Y-88288476D01*
X167636968Y-88755437D01*
X167510753Y-89448733D01*
X167666946Y-90120876D01*
X167827916Y-90342917D01*
X168178454Y-90434585D01*
X168981295Y-90511928D01*
X170159771Y-90574946D01*
X171637211Y-90623641D01*
X173336946Y-90658011D01*
X175182307Y-90678056D01*
X177096625Y-90683777D01*
X179003230Y-90675174D01*
X180825452Y-90652247D01*
X182486624Y-90614995D01*
X183910074Y-90563418D01*
X185019134Y-90497518D01*
X185737135Y-90417293D01*
X185978333Y-90342917D01*
X186263956Y-89756620D01*
X186257045Y-89042101D01*
X185981004Y-88446848D01*
X185784061Y-88288476D01*
X185323829Y-88179371D01*
X184462617Y-88090891D01*
X183328501Y-88032805D01*
X182192785Y-88014584D01*
X180873975Y-88007806D01*
X179999339Y-87978708D01*
X179483964Y-87914146D01*
X179242936Y-87800977D01*
X179191343Y-87626056D01*
X179201602Y-87551563D01*
X179316239Y-87332095D01*
X179624320Y-87180161D01*
X180221015Y-87074807D01*
X181201489Y-86995080D01*
X181905309Y-86956251D01*
X183323701Y-86850538D01*
X184270425Y-86680245D01*
X184802070Y-86411755D01*
X184975228Y-86011452D01*
X184846489Y-85445718D01*
X184765837Y-85257006D01*
X184602464Y-84947344D01*
X184380816Y-84749255D01*
X183992721Y-84637834D01*
X183330009Y-84588178D01*
X182284508Y-84575380D01*
X181803589Y-84575000D01*
X180563016Y-84561254D01*
X179765911Y-84511714D01*
X179327087Y-84413929D01*
X179161361Y-84255448D01*
X179152083Y-84187435D01*
X178906146Y-83713558D01*
X178212028Y-83393860D01*
X177135266Y-83255599D01*
X176903125Y-83252084D01*
X175763735Y-83354370D01*
G37*
X175763735Y-83354370D02*
X174995054Y-83643057D01*
X174662619Y-84090886D01*
X174654167Y-84187435D01*
X174559653Y-84369497D01*
X174219133Y-84486177D01*
X173547141Y-84550083D01*
X172458208Y-84573824D01*
X172027232Y-84575000D01*
X170573338Y-84612652D01*
X169572568Y-84743748D01*
X168953042Y-84995504D01*
X168642879Y-85395136D01*
X168568750Y-85884419D01*
X168661553Y-86327076D01*
X168990570Y-86636102D01*
X169631718Y-86837291D01*
X170660909Y-86956440D01*
X171887796Y-87012196D01*
X173108318Y-87059556D01*
X173895643Y-87128977D01*
X174345733Y-87239513D01*
X174554549Y-87410216D01*
X174604356Y-87551563D01*
X174597274Y-87750046D01*
X174429118Y-87882386D01*
X174014984Y-87961727D01*
X173269966Y-88001213D01*
X172109159Y-88013989D01*
X171613464Y-88014584D01*
X170344139Y-88037385D01*
X169233672Y-88099278D01*
X168410139Y-88190493D01*
X168022189Y-88288476D01*
X167636968Y-88755437D01*
X167510753Y-89448733D01*
X167666946Y-90120876D01*
X167827916Y-90342917D01*
X168178454Y-90434585D01*
X168981295Y-90511928D01*
X170159771Y-90574946D01*
X171637211Y-90623641D01*
X173336946Y-90658011D01*
X175182307Y-90678056D01*
X177096625Y-90683777D01*
X179003230Y-90675174D01*
X180825452Y-90652247D01*
X182486624Y-90614995D01*
X183910074Y-90563418D01*
X185019134Y-90497518D01*
X185737135Y-90417293D01*
X185978333Y-90342917D01*
X186263956Y-89756620D01*
X186257045Y-89042101D01*
X185981004Y-88446848D01*
X185784061Y-88288476D01*
X185323829Y-88179371D01*
X184462617Y-88090891D01*
X183328501Y-88032805D01*
X182192785Y-88014584D01*
X180873975Y-88007806D01*
X179999339Y-87978708D01*
X179483964Y-87914146D01*
X179242936Y-87800977D01*
X179191343Y-87626056D01*
X179201602Y-87551563D01*
X179316239Y-87332095D01*
X179624320Y-87180161D01*
X180221015Y-87074807D01*
X181201489Y-86995080D01*
X181905309Y-86956251D01*
X183323701Y-86850538D01*
X184270425Y-86680245D01*
X184802070Y-86411755D01*
X184975228Y-86011452D01*
X184846489Y-85445718D01*
X184765837Y-85257006D01*
X184602464Y-84947344D01*
X184380816Y-84749255D01*
X183992721Y-84637834D01*
X183330009Y-84588178D01*
X182284508Y-84575380D01*
X181803589Y-84575000D01*
X180563016Y-84561254D01*
X179765911Y-84511714D01*
X179327087Y-84413929D01*
X179161361Y-84255448D01*
X179152083Y-84187435D01*
X178906146Y-83713558D01*
X178212028Y-83393860D01*
X177135266Y-83255599D01*
X176903125Y-83252084D01*
X175763735Y-83354370D01*
G36*
X140880699Y-81576927D02*
G01*
X140316651Y-82048201D01*
X139596365Y-82724567D01*
X139332291Y-82987501D01*
X137761356Y-84575000D01*
X139332291Y-86162501D01*
X140082162Y-86888614D01*
X140711480Y-87440224D01*
X141116112Y-87728074D01*
X141184375Y-87750001D01*
X141488051Y-87573074D01*
X142052099Y-87101800D01*
X142772385Y-86425434D01*
X143036458Y-86162501D01*
X144607393Y-84575000D01*
X143276143Y-84575000D01*
X142238480Y-85637664D01*
X141200817Y-86700327D01*
X140138153Y-85637664D01*
X139075490Y-84575000D01*
X140138153Y-83512337D01*
X141200817Y-82449674D01*
X143276143Y-84575000D01*
X144607393Y-84575000D01*
X143036458Y-82987501D01*
X142286588Y-82261387D01*
X141657270Y-81709777D01*
X141252638Y-81421927D01*
X141184375Y-81400000D01*
X140880699Y-81576927D01*
G37*
X140880699Y-81576927D02*
X140316651Y-82048201D01*
X139596365Y-82724567D01*
X139332291Y-82987501D01*
X137761356Y-84575000D01*
X139332291Y-86162501D01*
X140082162Y-86888614D01*
X140711480Y-87440224D01*
X141116112Y-87728074D01*
X141184375Y-87750001D01*
X141488051Y-87573074D01*
X142052099Y-87101800D01*
X142772385Y-86425434D01*
X143036458Y-86162501D01*
X144607393Y-84575000D01*
X143276143Y-84575000D01*
X142238480Y-85637664D01*
X141200817Y-86700327D01*
X140138153Y-85637664D01*
X139075490Y-84575000D01*
X140138153Y-83512337D01*
X141200817Y-82449674D01*
X143276143Y-84575000D01*
X144607393Y-84575000D01*
X143036458Y-82987501D01*
X142286588Y-82261387D01*
X141657270Y-81709777D01*
X141252638Y-81421927D01*
X141184375Y-81400000D01*
X140880699Y-81576927D01*
G36*
X123060739Y-82854890D02*
G01*
X122334546Y-83604833D01*
X121782846Y-84234224D01*
X121494886Y-84638944D01*
X121472917Y-84707292D01*
X121646692Y-84990838D01*
X122095813Y-85523954D01*
X122711973Y-86194363D01*
X123386865Y-86889787D01*
X124012181Y-87497947D01*
X124479616Y-87906566D01*
X124663232Y-88014584D01*
X124895937Y-87839285D01*
X125405924Y-87370557D01*
X126101372Y-86694156D01*
X126441760Y-86353555D01*
X128088024Y-84692525D01*
X127971307Y-84576845D01*
X126870176Y-84576845D01*
X125837641Y-85634256D01*
X125250400Y-86213169D01*
X124818741Y-86597247D01*
X124671521Y-86691667D01*
X124423274Y-86522320D01*
X123929568Y-86087565D01*
X123533946Y-85711297D01*
X122529956Y-84730928D01*
X123510341Y-83726922D01*
X124114598Y-83160470D01*
X124601165Y-82796393D01*
X124782002Y-82722917D01*
X125123535Y-82899417D01*
X125663212Y-83348029D01*
X125971727Y-83649881D01*
X126870176Y-84576845D01*
X127971307Y-84576845D01*
X124648562Y-81283635D01*
X123060739Y-82854890D01*
G37*
X123060739Y-82854890D02*
X122334546Y-83604833D01*
X121782846Y-84234224D01*
X121494886Y-84638944D01*
X121472917Y-84707292D01*
X121646692Y-84990838D01*
X122095813Y-85523954D01*
X122711973Y-86194363D01*
X123386865Y-86889787D01*
X124012181Y-87497947D01*
X124479616Y-87906566D01*
X124663232Y-88014584D01*
X124895937Y-87839285D01*
X125405924Y-87370557D01*
X126101372Y-86694156D01*
X126441760Y-86353555D01*
X128088024Y-84692525D01*
X127971307Y-84576845D01*
X126870176Y-84576845D01*
X125837641Y-85634256D01*
X125250400Y-86213169D01*
X124818741Y-86597247D01*
X124671521Y-86691667D01*
X124423274Y-86522320D01*
X123929568Y-86087565D01*
X123533946Y-85711297D01*
X122529956Y-84730928D01*
X123510341Y-83726922D01*
X124114598Y-83160470D01*
X124601165Y-82796393D01*
X124782002Y-82722917D01*
X125123535Y-82899417D01*
X125663212Y-83348029D01*
X125971727Y-83649881D01*
X126870176Y-84576845D01*
X127971307Y-84576845D01*
X124648562Y-81283635D01*
X123060739Y-82854890D01*
G36*
X128445282Y-85810260D02*
G01*
X127881234Y-86281535D01*
X127160948Y-86957900D01*
X126896875Y-87220834D01*
X125325940Y-88808334D01*
X126896875Y-90395834D01*
X127646745Y-91121947D01*
X128276063Y-91673557D01*
X128680695Y-91961408D01*
X128748958Y-91983334D01*
X129052634Y-91806407D01*
X129616682Y-91335133D01*
X130336968Y-90658768D01*
X130601041Y-90395834D01*
X132171977Y-88808334D01*
X132018785Y-88653526D01*
X131000356Y-88653526D01*
X128763974Y-90932234D01*
X127702024Y-89870284D01*
X126640073Y-88808334D01*
X127756332Y-87692076D01*
X128872590Y-86575818D01*
X131000356Y-88653526D01*
X132018785Y-88653526D01*
X130601041Y-87220834D01*
X129851171Y-86494721D01*
X129221853Y-85943110D01*
X128817221Y-85655260D01*
X128748958Y-85633334D01*
X128445282Y-85810260D01*
G37*
X128445282Y-85810260D02*
X127881234Y-86281535D01*
X127160948Y-86957900D01*
X126896875Y-87220834D01*
X125325940Y-88808334D01*
X126896875Y-90395834D01*
X127646745Y-91121947D01*
X128276063Y-91673557D01*
X128680695Y-91961408D01*
X128748958Y-91983334D01*
X129052634Y-91806407D01*
X129616682Y-91335133D01*
X130336968Y-90658768D01*
X130601041Y-90395834D01*
X132171977Y-88808334D01*
X132018785Y-88653526D01*
X131000356Y-88653526D01*
X128763974Y-90932234D01*
X127702024Y-89870284D01*
X126640073Y-88808334D01*
X127756332Y-87692076D01*
X128872590Y-86575818D01*
X131000356Y-88653526D01*
X132018785Y-88653526D01*
X130601041Y-87220834D01*
X129851171Y-86494721D01*
X129221853Y-85943110D01*
X128817221Y-85655260D01*
X128748958Y-85633334D01*
X128445282Y-85810260D01*
G36*
X135319925Y-87004766D02*
G01*
X133562381Y-88762311D01*
X135098549Y-90372822D01*
X135835995Y-91110907D01*
X136459250Y-91670987D01*
X136864471Y-91961920D01*
X136933453Y-91983334D01*
X137247685Y-91806346D01*
X137817505Y-91336199D01*
X138534817Y-90664118D01*
X138745261Y-90454307D01*
X139449042Y-89712474D01*
X139978511Y-89096041D01*
X140243695Y-88711699D01*
X140258333Y-88660088D01*
X140254416Y-88653526D01*
X139202440Y-88653526D01*
X138084248Y-89792880D01*
X136966057Y-90932234D01*
X134842157Y-88808334D01*
X137074673Y-86575818D01*
X138138556Y-87614672D01*
X139202440Y-88653526D01*
X140254416Y-88653526D01*
X140081588Y-88364052D01*
X139610699Y-87805984D01*
X138934688Y-87088819D01*
X138667902Y-86821058D01*
X137077470Y-85247222D01*
X135319925Y-87004766D01*
G37*
X135319925Y-87004766D02*
X133562381Y-88762311D01*
X135098549Y-90372822D01*
X135835995Y-91110907D01*
X136459250Y-91670987D01*
X136864471Y-91961920D01*
X136933453Y-91983334D01*
X137247685Y-91806346D01*
X137817505Y-91336199D01*
X138534817Y-90664118D01*
X138745261Y-90454307D01*
X139449042Y-89712474D01*
X139978511Y-89096041D01*
X140243695Y-88711699D01*
X140258333Y-88660088D01*
X140254416Y-88653526D01*
X139202440Y-88653526D01*
X138084248Y-89792880D01*
X136966057Y-90932234D01*
X134842157Y-88808334D01*
X137074673Y-86575818D01*
X138138556Y-87614672D01*
X139202440Y-88653526D01*
X140254416Y-88653526D01*
X140081588Y-88364052D01*
X139610699Y-87805984D01*
X138934688Y-87088819D01*
X138667902Y-86821058D01*
X137077470Y-85247222D01*
X135319925Y-87004766D01*
G36*
X141845309Y-88661275D02*
G01*
X143491573Y-90322305D01*
X144241501Y-91063159D01*
X144848904Y-91633769D01*
X145220989Y-91948240D01*
X145286056Y-91983334D01*
X145528046Y-91808188D01*
X146040582Y-91342577D01*
X146726157Y-90676243D01*
X146947345Y-90454307D01*
X147651126Y-89712474D01*
X148180595Y-89096041D01*
X148445778Y-88711699D01*
X148460416Y-88660088D01*
X148455832Y-88652407D01*
X147403377Y-88652407D01*
X146422992Y-89656412D01*
X145846148Y-90219288D01*
X145420568Y-90583599D01*
X145285416Y-90660417D01*
X145027585Y-90486622D01*
X144534960Y-90040540D01*
X144147841Y-89656412D01*
X143167456Y-88652407D01*
X144226436Y-87618340D01*
X145285416Y-86584274D01*
X146344397Y-87618340D01*
X147403377Y-88652407D01*
X148455832Y-88652407D01*
X148283678Y-88363968D01*
X147812862Y-87805941D01*
X147137067Y-87089057D01*
X146872594Y-86823640D01*
X145284771Y-85252385D01*
X141845309Y-88661275D01*
G37*
X141845309Y-88661275D02*
X143491573Y-90322305D01*
X144241501Y-91063159D01*
X144848904Y-91633769D01*
X145220989Y-91948240D01*
X145286056Y-91983334D01*
X145528046Y-91808188D01*
X146040582Y-91342577D01*
X146726157Y-90676243D01*
X146947345Y-90454307D01*
X147651126Y-89712474D01*
X148180595Y-89096041D01*
X148445778Y-88711699D01*
X148460416Y-88660088D01*
X148455832Y-88652407D01*
X147403377Y-88652407D01*
X146422992Y-89656412D01*
X145846148Y-90219288D01*
X145420568Y-90583599D01*
X145285416Y-90660417D01*
X145027585Y-90486622D01*
X144534960Y-90040540D01*
X144147841Y-89656412D01*
X143167456Y-88652407D01*
X144226436Y-87618340D01*
X145285416Y-86584274D01*
X146344397Y-87618340D01*
X147403377Y-88652407D01*
X148455832Y-88652407D01*
X148283678Y-88363968D01*
X147812862Y-87805941D01*
X147137067Y-87089057D01*
X146872594Y-86823640D01*
X145284771Y-85252385D01*
X141845309Y-88661275D01*
G36*
X140857933Y-89782590D02*
G01*
X140310699Y-90249412D01*
X139636991Y-90890505D01*
X138947733Y-91593822D01*
X138353847Y-92247318D01*
X137966256Y-92738947D01*
X137877083Y-92926086D01*
X138064032Y-93270923D01*
X138544439Y-93830816D01*
X139197644Y-94491394D01*
X139902987Y-95138283D01*
X140539806Y-95657112D01*
X140987443Y-95933508D01*
X141069441Y-95952084D01*
X141439008Y-95773956D01*
X142044378Y-95304236D01*
X142762163Y-94639919D01*
X142847059Y-94554701D01*
X143519341Y-93823260D01*
X144010457Y-93192270D01*
X144224555Y-92786401D01*
X144225437Y-92777084D01*
X143276143Y-92777084D01*
X142242708Y-93835417D01*
X141650669Y-94415233D01*
X141208587Y-94799646D01*
X141052083Y-94893751D01*
X140794228Y-94719960D01*
X140301646Y-94273920D01*
X139915204Y-93890458D01*
X138935514Y-92887165D01*
X140071203Y-91772571D01*
X141206891Y-90657977D01*
X142241517Y-91717531D01*
X143276143Y-92777084D01*
X144225437Y-92777084D01*
X144227083Y-92759726D01*
X144047529Y-92399316D01*
X143586225Y-91814106D01*
X142959208Y-91123865D01*
X142282516Y-90448359D01*
X141672187Y-89907355D01*
X141244259Y-89620621D01*
X141167773Y-89602084D01*
X140857933Y-89782590D01*
G37*
X140857933Y-89782590D02*
X140310699Y-90249412D01*
X139636991Y-90890505D01*
X138947733Y-91593822D01*
X138353847Y-92247318D01*
X137966256Y-92738947D01*
X137877083Y-92926086D01*
X138064032Y-93270923D01*
X138544439Y-93830816D01*
X139197644Y-94491394D01*
X139902987Y-95138283D01*
X140539806Y-95657112D01*
X140987443Y-95933508D01*
X141069441Y-95952084D01*
X141439008Y-95773956D01*
X142044378Y-95304236D01*
X142762163Y-94639919D01*
X142847059Y-94554701D01*
X143519341Y-93823260D01*
X144010457Y-93192270D01*
X144224555Y-92786401D01*
X144225437Y-92777084D01*
X143276143Y-92777084D01*
X142242708Y-93835417D01*
X141650669Y-94415233D01*
X141208587Y-94799646D01*
X141052083Y-94893751D01*
X140794228Y-94719960D01*
X140301646Y-94273920D01*
X139915204Y-93890458D01*
X138935514Y-92887165D01*
X140071203Y-91772571D01*
X141206891Y-90657977D01*
X142241517Y-91717531D01*
X143276143Y-92777084D01*
X144225437Y-92777084D01*
X144227083Y-92759726D01*
X144047529Y-92399316D01*
X143586225Y-91814106D01*
X142959208Y-91123865D01*
X142282516Y-90448359D01*
X141672187Y-89907355D01*
X141244259Y-89620621D01*
X141167773Y-89602084D01*
X140857933Y-89782590D01*
G36*
X148891433Y-89780512D02*
G01*
X148303640Y-90238969D01*
X147610229Y-90862218D01*
X146931392Y-91535020D01*
X146387326Y-92142136D01*
X146098225Y-92568328D01*
X146079166Y-92645440D01*
X146259662Y-92960714D01*
X146726497Y-93512997D01*
X147367696Y-94190929D01*
X148071285Y-94883148D01*
X148725287Y-95478291D01*
X149217728Y-95865000D01*
X149404047Y-95952084D01*
X149712982Y-95771850D01*
X150274639Y-95291967D01*
X150985045Y-94603669D01*
X151236206Y-94344450D01*
X152739480Y-92768424D01*
X151486683Y-92768424D01*
X150447828Y-93832307D01*
X149408974Y-94896190D01*
X147130266Y-92659808D01*
X148192216Y-91597858D01*
X149254166Y-90535907D01*
X151486683Y-92768424D01*
X152739480Y-92768424D01*
X152769629Y-92736816D01*
X151218618Y-91169450D01*
X150454837Y-90445277D01*
X149788150Y-89898319D01*
X149332830Y-89619716D01*
X149253411Y-89602084D01*
X148891433Y-89780512D01*
G37*
X148891433Y-89780512D02*
X148303640Y-90238969D01*
X147610229Y-90862218D01*
X146931392Y-91535020D01*
X146387326Y-92142136D01*
X146098225Y-92568328D01*
X146079166Y-92645440D01*
X146259662Y-92960714D01*
X146726497Y-93512997D01*
X147367696Y-94190929D01*
X148071285Y-94883148D01*
X148725287Y-95478291D01*
X149217728Y-95865000D01*
X149404047Y-95952084D01*
X149712982Y-95771850D01*
X150274639Y-95291967D01*
X150985045Y-94603669D01*
X151236206Y-94344450D01*
X152739480Y-92768424D01*
X151486683Y-92768424D01*
X150447828Y-93832307D01*
X149408974Y-94896190D01*
X147130266Y-92659808D01*
X148192216Y-91597858D01*
X149254166Y-90535907D01*
X151486683Y-92768424D01*
X152739480Y-92768424D01*
X152769629Y-92736816D01*
X151218618Y-91169450D01*
X150454837Y-90445277D01*
X149788150Y-89898319D01*
X149332830Y-89619716D01*
X149253411Y-89602084D01*
X148891433Y-89780512D01*
G36*
X131262500Y-91057292D02*
G01*
X130535985Y-91809560D01*
X129984242Y-92444327D01*
X129696694Y-92856277D01*
X129675000Y-92926964D01*
X129850132Y-93202835D01*
X130302925Y-93727877D01*
X130924476Y-94391167D01*
X131605881Y-95081779D01*
X132238234Y-95688790D01*
X132712633Y-96101276D01*
X132904786Y-96216667D01*
X133120961Y-96042179D01*
X133612949Y-95578191D01*
X134286978Y-94913917D01*
X134511928Y-94687641D01*
X135215709Y-93945807D01*
X135745178Y-93329374D01*
X136010362Y-92945032D01*
X136025000Y-92893421D01*
X135955568Y-92777084D01*
X135074060Y-92777084D01*
X134040625Y-93835417D01*
X133448586Y-94415233D01*
X133006504Y-94799646D01*
X132850000Y-94893751D01*
X132592145Y-94719960D01*
X132099563Y-94273920D01*
X131713120Y-93890458D01*
X130733431Y-92887165D01*
X133004807Y-90657977D01*
X134039434Y-91717531D01*
X135074060Y-92777084D01*
X135955568Y-92777084D01*
X135848262Y-92597290D01*
X135377455Y-92039269D01*
X134701686Y-91322420D01*
X134437500Y-91057292D01*
X132850000Y-89486357D01*
X131262500Y-91057292D01*
G37*
X131262500Y-91057292D02*
X130535985Y-91809560D01*
X129984242Y-92444327D01*
X129696694Y-92856277D01*
X129675000Y-92926964D01*
X129850132Y-93202835D01*
X130302925Y-93727877D01*
X130924476Y-94391167D01*
X131605881Y-95081779D01*
X132238234Y-95688790D01*
X132712633Y-96101276D01*
X132904786Y-96216667D01*
X133120961Y-96042179D01*
X133612949Y-95578191D01*
X134286978Y-94913917D01*
X134511928Y-94687641D01*
X135215709Y-93945807D01*
X135745178Y-93329374D01*
X136010362Y-92945032D01*
X136025000Y-92893421D01*
X135955568Y-92777084D01*
X135074060Y-92777084D01*
X134040625Y-93835417D01*
X133448586Y-94415233D01*
X133006504Y-94799646D01*
X132850000Y-94893751D01*
X132592145Y-94719960D01*
X132099563Y-94273920D01*
X131713120Y-93890458D01*
X130733431Y-92887165D01*
X133004807Y-90657977D01*
X134039434Y-91717531D01*
X135074060Y-92777084D01*
X135955568Y-92777084D01*
X135848262Y-92597290D01*
X135377455Y-92039269D01*
X134701686Y-91322420D01*
X134437500Y-91057292D01*
X132850000Y-89486357D01*
X131262500Y-91057292D01*
G36*
X133522221Y-97004554D02*
G01*
X135096057Y-98594986D01*
X135846589Y-99321824D01*
X136476574Y-99874250D01*
X136882010Y-100163092D01*
X136951041Y-100185417D01*
X137254706Y-100008490D01*
X137818759Y-99537206D01*
X138539080Y-98860815D01*
X138803444Y-98597595D01*
X140374699Y-97009772D01*
X140219050Y-96852727D01*
X138935416Y-96852727D01*
X138763603Y-97179337D01*
X138322987Y-97727658D01*
X137951450Y-98128071D01*
X136967484Y-99135744D01*
X135904820Y-98073081D01*
X134842157Y-97010417D01*
X137072819Y-94779755D01*
X138004118Y-95682405D01*
X138547383Y-96259560D01*
X138882967Y-96713532D01*
X138935416Y-96852727D01*
X140219050Y-96852727D01*
X138667928Y-95287695D01*
X136961158Y-93565617D01*
X133522221Y-97004554D01*
G37*
X133522221Y-97004554D02*
X135096057Y-98594986D01*
X135846589Y-99321824D01*
X136476574Y-99874250D01*
X136882010Y-100163092D01*
X136951041Y-100185417D01*
X137254706Y-100008490D01*
X137818759Y-99537206D01*
X138539080Y-98860815D01*
X138803444Y-98597595D01*
X140374699Y-97009772D01*
X140219050Y-96852727D01*
X138935416Y-96852727D01*
X138763603Y-97179337D01*
X138322987Y-97727658D01*
X137951450Y-98128071D01*
X136967484Y-99135744D01*
X135904820Y-98073081D01*
X134842157Y-97010417D01*
X137072819Y-94779755D01*
X138004118Y-95682405D01*
X138547383Y-96259560D01*
X138882967Y-96713532D01*
X138935416Y-96852727D01*
X140219050Y-96852727D01*
X138667928Y-95287695D01*
X136961158Y-93565617D01*
X133522221Y-97004554D01*
G36*
X144443783Y-94053550D02*
G01*
X143743642Y-94703032D01*
X143081742Y-95401878D01*
X142407562Y-96165595D01*
X142072105Y-96681468D01*
X142018362Y-97052955D01*
X142080477Y-97219057D01*
X142393629Y-97633458D01*
X142947551Y-98229087D01*
X143623867Y-98893963D01*
X144304198Y-99516101D01*
X144870167Y-99983520D01*
X145203397Y-100184235D01*
X145216218Y-100185417D01*
X145491640Y-100009419D01*
X146030724Y-99541707D01*
X146731090Y-98872711D01*
X146947345Y-98656391D01*
X147651126Y-97914557D01*
X148180595Y-97298124D01*
X148445778Y-96913782D01*
X148460416Y-96862171D01*
X148455851Y-96854490D01*
X147403377Y-96854490D01*
X146422992Y-97858495D01*
X145824275Y-98424231D01*
X145350033Y-98788360D01*
X145178170Y-98862501D01*
X144843566Y-98692047D01*
X144304992Y-98261484D01*
X144041242Y-98016848D01*
X143517688Y-97455783D01*
X143206348Y-97018574D01*
X143168750Y-96904965D01*
X143348173Y-96548494D01*
X143786366Y-96015378D01*
X144333213Y-95459738D01*
X144838598Y-95035691D01*
X145127726Y-94893751D01*
X145454563Y-95065548D01*
X146002664Y-95505966D01*
X146399387Y-95874120D01*
X147403377Y-96854490D01*
X148455851Y-96854490D01*
X148283766Y-96564996D01*
X147813859Y-96007499D01*
X147140762Y-95294161D01*
X146904761Y-95057554D01*
X146101611Y-94287775D01*
X145503346Y-93856678D01*
X144990544Y-93775018D01*
X144443783Y-94053550D01*
G37*
X144443783Y-94053550D02*
X143743642Y-94703032D01*
X143081742Y-95401878D01*
X142407562Y-96165595D01*
X142072105Y-96681468D01*
X142018362Y-97052955D01*
X142080477Y-97219057D01*
X142393629Y-97633458D01*
X142947551Y-98229087D01*
X143623867Y-98893963D01*
X144304198Y-99516101D01*
X144870167Y-99983520D01*
X145203397Y-100184235D01*
X145216218Y-100185417D01*
X145491640Y-100009419D01*
X146030724Y-99541707D01*
X146731090Y-98872711D01*
X146947345Y-98656391D01*
X147651126Y-97914557D01*
X148180595Y-97298124D01*
X148445778Y-96913782D01*
X148460416Y-96862171D01*
X148455851Y-96854490D01*
X147403377Y-96854490D01*
X146422992Y-97858495D01*
X145824275Y-98424231D01*
X145350033Y-98788360D01*
X145178170Y-98862501D01*
X144843566Y-98692047D01*
X144304992Y-98261484D01*
X144041242Y-98016848D01*
X143517688Y-97455783D01*
X143206348Y-97018574D01*
X143168750Y-96904965D01*
X143348173Y-96548494D01*
X143786366Y-96015378D01*
X144333213Y-95459738D01*
X144838598Y-95035691D01*
X145127726Y-94893751D01*
X145454563Y-95065548D01*
X146002664Y-95505966D01*
X146399387Y-95874120D01*
X147403377Y-96854490D01*
X148455851Y-96854490D01*
X148283766Y-96564996D01*
X147813859Y-96007499D01*
X147140762Y-95294161D01*
X146904761Y-95057554D01*
X146101611Y-94287775D01*
X145503346Y-93856678D01*
X144990544Y-93775018D01*
X144443783Y-94053550D01*
G36*
X153028696Y-93751069D02*
G01*
X152467034Y-94230960D01*
X151756595Y-94919284D01*
X151505162Y-95178780D01*
X149971441Y-96786727D01*
X151655681Y-98486072D01*
X152407515Y-99234941D01*
X153008527Y-99815342D01*
X153370391Y-100142840D01*
X153433353Y-100185417D01*
X153654130Y-100015917D01*
X154159476Y-99564969D01*
X154853490Y-98918903D01*
X155094642Y-98689934D01*
X155821714Y-97963970D01*
X156369680Y-97355035D01*
X156646241Y-96967813D01*
X156662500Y-96911669D01*
X156631711Y-96855915D01*
X155604069Y-96855915D01*
X154624379Y-97859208D01*
X154047737Y-98421858D01*
X153622376Y-98785901D01*
X153487500Y-98862501D01*
X153231341Y-98688363D01*
X152735648Y-98239197D01*
X152296875Y-97804167D01*
X151263440Y-96745834D01*
X152298066Y-95686281D01*
X153332692Y-94626727D01*
X154468380Y-95741321D01*
X155604069Y-96855915D01*
X156631711Y-96855915D01*
X156482211Y-96585199D01*
X156015800Y-96022521D01*
X155374951Y-95335856D01*
X154671349Y-94637424D01*
X154016677Y-94039444D01*
X153522621Y-93654136D01*
X153337620Y-93570834D01*
X153028696Y-93751069D01*
G37*
X153028696Y-93751069D02*
X152467034Y-94230960D01*
X151756595Y-94919284D01*
X151505162Y-95178780D01*
X149971441Y-96786727D01*
X151655681Y-98486072D01*
X152407515Y-99234941D01*
X153008527Y-99815342D01*
X153370391Y-100142840D01*
X153433353Y-100185417D01*
X153654130Y-100015917D01*
X154159476Y-99564969D01*
X154853490Y-98918903D01*
X155094642Y-98689934D01*
X155821714Y-97963970D01*
X156369680Y-97355035D01*
X156646241Y-96967813D01*
X156662500Y-96911669D01*
X156631711Y-96855915D01*
X155604069Y-96855915D01*
X154624379Y-97859208D01*
X154047737Y-98421858D01*
X153622376Y-98785901D01*
X153487500Y-98862501D01*
X153231341Y-98688363D01*
X152735648Y-98239197D01*
X152296875Y-97804167D01*
X151263440Y-96745834D01*
X152298066Y-95686281D01*
X153332692Y-94626727D01*
X154468380Y-95741321D01*
X155604069Y-96855915D01*
X156631711Y-96855915D01*
X156482211Y-96585199D01*
X156015800Y-96022521D01*
X155374951Y-95335856D01*
X154671349Y-94637424D01*
X154016677Y-94039444D01*
X153522621Y-93654136D01*
X153337620Y-93570834D01*
X153028696Y-93751069D01*
G36*
X140568429Y-97991104D02*
G01*
X140003230Y-98471527D01*
X139338338Y-99124856D01*
X138688653Y-99830509D01*
X138169074Y-100467906D01*
X137894502Y-100916465D01*
X137877083Y-100996525D01*
X138064026Y-101389622D01*
X138544814Y-101993661D01*
X139199386Y-102689887D01*
X139907683Y-103359545D01*
X140549644Y-103883881D01*
X141005209Y-104144140D01*
X141069441Y-104154167D01*
X141439008Y-103976040D01*
X142044378Y-103506320D01*
X142762163Y-102842003D01*
X142847059Y-102756785D01*
X143515767Y-102048325D01*
X144006032Y-101469177D01*
X144223712Y-101131625D01*
X144227083Y-101110811D01*
X144146122Y-100970507D01*
X143284599Y-100970507D01*
X142246936Y-102033170D01*
X141653700Y-102614317D01*
X141210321Y-103000300D01*
X141052083Y-103095834D01*
X140796053Y-102921670D01*
X140300130Y-102472269D01*
X139857230Y-102033170D01*
X138819567Y-100970507D01*
X141052083Y-98737991D01*
X143284599Y-100970507D01*
X144146122Y-100970507D01*
X144047338Y-100799319D01*
X143582511Y-100249172D01*
X142944212Y-99571934D01*
X142244052Y-98879168D01*
X141593640Y-98282438D01*
X141104588Y-97893305D01*
X140919036Y-97804167D01*
X140568429Y-97991104D01*
G37*
X140568429Y-97991104D02*
X140003230Y-98471527D01*
X139338338Y-99124856D01*
X138688653Y-99830509D01*
X138169074Y-100467906D01*
X137894502Y-100916465D01*
X137877083Y-100996525D01*
X138064026Y-101389622D01*
X138544814Y-101993661D01*
X139199386Y-102689887D01*
X139907683Y-103359545D01*
X140549644Y-103883881D01*
X141005209Y-104144140D01*
X141069441Y-104154167D01*
X141439008Y-103976040D01*
X142044378Y-103506320D01*
X142762163Y-102842003D01*
X142847059Y-102756785D01*
X143515767Y-102048325D01*
X144006032Y-101469177D01*
X144223712Y-101131625D01*
X144227083Y-101110811D01*
X144146122Y-100970507D01*
X143284599Y-100970507D01*
X142246936Y-102033170D01*
X141653700Y-102614317D01*
X141210321Y-103000300D01*
X141052083Y-103095834D01*
X140796053Y-102921670D01*
X140300130Y-102472269D01*
X139857230Y-102033170D01*
X138819567Y-100970507D01*
X141052083Y-98737991D01*
X143284599Y-100970507D01*
X144146122Y-100970507D01*
X144047338Y-100799319D01*
X143582511Y-100249172D01*
X142944212Y-99571934D01*
X142244052Y-98879168D01*
X141593640Y-98282438D01*
X141104588Y-97893305D01*
X140919036Y-97804167D01*
X140568429Y-97991104D01*
G36*
X148843711Y-97991110D02*
G01*
X148239672Y-98471898D01*
X147543447Y-99126470D01*
X146873788Y-99834767D01*
X146349453Y-100476728D01*
X146089194Y-100932293D01*
X146079166Y-100996525D01*
X146266109Y-101389622D01*
X146746897Y-101993661D01*
X147401469Y-102689887D01*
X148109766Y-103359545D01*
X148751727Y-103883881D01*
X149207292Y-104144140D01*
X149271525Y-104154167D01*
X149641092Y-103976040D01*
X150246461Y-103506320D01*
X150964246Y-102842003D01*
X151049142Y-102756785D01*
X151721425Y-102025344D01*
X152212540Y-101394353D01*
X152426638Y-100988484D01*
X152428341Y-100970507D01*
X151486683Y-100970507D01*
X150449020Y-102033170D01*
X149855783Y-102614317D01*
X149412404Y-103000300D01*
X149254166Y-103095834D01*
X148998136Y-102921670D01*
X148502213Y-102472269D01*
X148059313Y-102033170D01*
X147021650Y-100970507D01*
X149254166Y-98737991D01*
X150370425Y-99854249D01*
X151486683Y-100970507D01*
X152428341Y-100970507D01*
X152429166Y-100961809D01*
X152242224Y-100568712D01*
X151761436Y-99964673D01*
X151106864Y-99268447D01*
X150398567Y-98598789D01*
X149756606Y-98074453D01*
X149301041Y-97814195D01*
X149236808Y-97804167D01*
X148843711Y-97991110D01*
G37*
X148843711Y-97991110D02*
X148239672Y-98471898D01*
X147543447Y-99126470D01*
X146873788Y-99834767D01*
X146349453Y-100476728D01*
X146089194Y-100932293D01*
X146079166Y-100996525D01*
X146266109Y-101389622D01*
X146746897Y-101993661D01*
X147401469Y-102689887D01*
X148109766Y-103359545D01*
X148751727Y-103883881D01*
X149207292Y-104144140D01*
X149271525Y-104154167D01*
X149641092Y-103976040D01*
X150246461Y-103506320D01*
X150964246Y-102842003D01*
X151049142Y-102756785D01*
X151721425Y-102025344D01*
X152212540Y-101394353D01*
X152426638Y-100988484D01*
X152428341Y-100970507D01*
X151486683Y-100970507D01*
X150449020Y-102033170D01*
X149855783Y-102614317D01*
X149412404Y-103000300D01*
X149254166Y-103095834D01*
X148998136Y-102921670D01*
X148502213Y-102472269D01*
X148059313Y-102033170D01*
X147021650Y-100970507D01*
X149254166Y-98737991D01*
X150370425Y-99854249D01*
X151486683Y-100970507D01*
X152428341Y-100970507D01*
X152429166Y-100961809D01*
X152242224Y-100568712D01*
X151761436Y-99964673D01*
X151106864Y-99268447D01*
X150398567Y-98598789D01*
X149756606Y-98074453D01*
X149301041Y-97814195D01*
X149236808Y-97804167D01*
X148843711Y-97991110D01*
G36*
X143436265Y-103225225D02*
G01*
X142709791Y-103973589D01*
X142157486Y-104598649D01*
X141868371Y-104997467D01*
X141845833Y-105064254D01*
X142026281Y-105385028D01*
X142493034Y-105942483D01*
X143134205Y-106624788D01*
X143837908Y-107320112D01*
X144492257Y-107916623D01*
X144985365Y-108302491D01*
X145170713Y-108387500D01*
X145479543Y-108207259D01*
X146041239Y-107727297D01*
X146751958Y-107038761D01*
X147005618Y-106776989D01*
X148541785Y-105166478D01*
X148430118Y-105054810D01*
X147137500Y-105054810D01*
X146965700Y-105381611D01*
X146525251Y-105929747D01*
X146156570Y-106327044D01*
X145175641Y-107331607D01*
X144039953Y-106217013D01*
X142904264Y-105102420D01*
X143883954Y-104099127D01*
X144482482Y-103533616D01*
X144956534Y-103169758D01*
X145128080Y-103095834D01*
X145483750Y-103275291D01*
X146016221Y-103713540D01*
X146571442Y-104260403D01*
X146995368Y-104765697D01*
X147137500Y-105054810D01*
X148430118Y-105054810D01*
X146784241Y-103408933D01*
X145026696Y-101651388D01*
X143436265Y-103225225D01*
G37*
X143436265Y-103225225D02*
X142709791Y-103973589D01*
X142157486Y-104598649D01*
X141868371Y-104997467D01*
X141845833Y-105064254D01*
X142026281Y-105385028D01*
X142493034Y-105942483D01*
X143134205Y-106624788D01*
X143837908Y-107320112D01*
X144492257Y-107916623D01*
X144985365Y-108302491D01*
X145170713Y-108387500D01*
X145479543Y-108207259D01*
X146041239Y-107727297D01*
X146751958Y-107038761D01*
X147005618Y-106776989D01*
X148541785Y-105166478D01*
X148430118Y-105054810D01*
X147137500Y-105054810D01*
X146965700Y-105381611D01*
X146525251Y-105929747D01*
X146156570Y-106327044D01*
X145175641Y-107331607D01*
X144039953Y-106217013D01*
X142904264Y-105102420D01*
X143883954Y-104099127D01*
X144482482Y-103533616D01*
X144956534Y-103169758D01*
X145128080Y-103095834D01*
X145483750Y-103275291D01*
X146016221Y-103713540D01*
X146571442Y-104260403D01*
X146995368Y-104765697D01*
X147137500Y-105054810D01*
X148430118Y-105054810D01*
X146784241Y-103408933D01*
X145026696Y-101651388D01*
X143436265Y-103225225D01*
G36*
X59919287Y-78762774D02*
G01*
X57818968Y-78768519D01*
X56113208Y-78780199D01*
X54757138Y-78799444D01*
X53705889Y-78827880D01*
X52914592Y-78867136D01*
X52338378Y-78918839D01*
X51932378Y-78984618D01*
X51651724Y-79066100D01*
X51451547Y-79164913D01*
X51293705Y-79277380D01*
X50775941Y-79853980D01*
X50505235Y-80445662D01*
X50543508Y-81340454D01*
X50909028Y-82212207D01*
X51498216Y-82851014D01*
X51760507Y-82989515D01*
X52189126Y-83050634D01*
X53115107Y-83104817D01*
X54506682Y-83151465D01*
X56332085Y-83189981D01*
X58559550Y-83219763D01*
X61157308Y-83240214D01*
X64093594Y-83250735D01*
X65683410Y-83252084D01*
X78915705Y-83252084D01*
X79689102Y-82478686D01*
X80311236Y-81620630D01*
X80424717Y-80755181D01*
X80154699Y-79993544D01*
X80009281Y-79725239D01*
X79853495Y-79499354D01*
X79643495Y-79312210D01*
X79335434Y-79160129D01*
X78885464Y-79039432D01*
X78249739Y-78946439D01*
X77384412Y-78877473D01*
X76245637Y-78828855D01*
X74789565Y-78796905D01*
X72972351Y-78777944D01*
X70750147Y-78768295D01*
X68079107Y-78764278D01*
X65483077Y-78762582D01*
X62459034Y-78761338D01*
X59919287Y-78762774D01*
G37*
X59919287Y-78762774D02*
X57818968Y-78768519D01*
X56113208Y-78780199D01*
X54757138Y-78799444D01*
X53705889Y-78827880D01*
X52914592Y-78867136D01*
X52338378Y-78918839D01*
X51932378Y-78984618D01*
X51651724Y-79066100D01*
X51451547Y-79164913D01*
X51293705Y-79277380D01*
X50775941Y-79853980D01*
X50505235Y-80445662D01*
X50543508Y-81340454D01*
X50909028Y-82212207D01*
X51498216Y-82851014D01*
X51760507Y-82989515D01*
X52189126Y-83050634D01*
X53115107Y-83104817D01*
X54506682Y-83151465D01*
X56332085Y-83189981D01*
X58559550Y-83219763D01*
X61157308Y-83240214D01*
X64093594Y-83250735D01*
X65683410Y-83252084D01*
X78915705Y-83252084D01*
X79689102Y-82478686D01*
X80311236Y-81620630D01*
X80424717Y-80755181D01*
X80154699Y-79993544D01*
X80009281Y-79725239D01*
X79853495Y-79499354D01*
X79643495Y-79312210D01*
X79335434Y-79160129D01*
X78885464Y-79039432D01*
X78249739Y-78946439D01*
X77384412Y-78877473D01*
X76245637Y-78828855D01*
X74789565Y-78796905D01*
X72972351Y-78777944D01*
X70750147Y-78768295D01*
X68079107Y-78764278D01*
X65483077Y-78762582D01*
X62459034Y-78761338D01*
X59919287Y-78762774D01*
G36*
X221160509Y-78179164D02*
G01*
X220472319Y-78773540D01*
X220168765Y-79650752D01*
X220162500Y-79810403D01*
X220344121Y-80424410D01*
X220836850Y-81277536D01*
X221562489Y-82283071D01*
X222442836Y-83354302D01*
X223399692Y-84404520D01*
X224354858Y-85347012D01*
X225230134Y-86095068D01*
X225947319Y-86561976D01*
X226353190Y-86674896D01*
X226816229Y-86568672D01*
X227222808Y-86425237D01*
X227935255Y-85867405D01*
X228308227Y-84916376D01*
X228364583Y-84215644D01*
X228307140Y-83733802D01*
X228096524Y-83211705D01*
X227675307Y-82554624D01*
X226986061Y-81667829D01*
X226372745Y-80930027D01*
X225321721Y-79724696D01*
X224487891Y-78888191D01*
X223781974Y-78357959D01*
X223114690Y-78071444D01*
X222396757Y-77966090D01*
X222134425Y-77960417D01*
X221160509Y-78179164D01*
G37*
X221160509Y-78179164D02*
X220472319Y-78773540D01*
X220168765Y-79650752D01*
X220162500Y-79810403D01*
X220344121Y-80424410D01*
X220836850Y-81277536D01*
X221562489Y-82283071D01*
X222442836Y-83354302D01*
X223399692Y-84404520D01*
X224354858Y-85347012D01*
X225230134Y-86095068D01*
X225947319Y-86561976D01*
X226353190Y-86674896D01*
X226816229Y-86568672D01*
X227222808Y-86425237D01*
X227935255Y-85867405D01*
X228308227Y-84916376D01*
X228364583Y-84215644D01*
X228307140Y-83733802D01*
X228096524Y-83211705D01*
X227675307Y-82554624D01*
X226986061Y-81667829D01*
X226372745Y-80930027D01*
X225321721Y-79724696D01*
X224487891Y-78888191D01*
X223781974Y-78357959D01*
X223114690Y-78071444D01*
X222396757Y-77966090D01*
X222134425Y-77960417D01*
X221160509Y-78179164D01*
G36*
X97919283Y-80078256D02*
G01*
X95471903Y-80082845D01*
X93461978Y-80092455D01*
X91843656Y-80108694D01*
X90571083Y-80133167D01*
X89598405Y-80167481D01*
X88879768Y-80213242D01*
X88369318Y-80272056D01*
X88021202Y-80345530D01*
X87789567Y-80435269D01*
X87631913Y-80540105D01*
X87024442Y-81345668D01*
X86772128Y-82353992D01*
X86868358Y-83397902D01*
X87306519Y-84310225D01*
X87799330Y-84772062D01*
X88133179Y-84943025D01*
X88594438Y-85071729D01*
X89263164Y-85166125D01*
X90219411Y-85234166D01*
X91543236Y-85283805D01*
X93314692Y-85322995D01*
X93352009Y-85323668D01*
X98196858Y-85410878D01*
X98057292Y-102434376D01*
X92043424Y-102566667D01*
X90110981Y-102610455D01*
X88636587Y-102651321D01*
X87549247Y-102697728D01*
X86777967Y-102758136D01*
X86251751Y-102841005D01*
X85899605Y-102954798D01*
X85650533Y-103107975D01*
X85433541Y-103308996D01*
X85383120Y-103360417D01*
X84779230Y-104309728D01*
X84625837Y-105366053D01*
X84924462Y-106385644D01*
X85345265Y-106944319D01*
X85994697Y-107593750D01*
X115676136Y-107593750D01*
X116325568Y-106944319D01*
X116786040Y-106306702D01*
X116963753Y-105493914D01*
X116975000Y-105115755D01*
X116907919Y-104282536D01*
X116631683Y-103711979D01*
X116160950Y-103251645D01*
X115346899Y-102566667D01*
X104010417Y-102566667D01*
X104010417Y-85368750D01*
X108045312Y-85367275D01*
X110178140Y-85337282D01*
X111839065Y-85234171D01*
X113082908Y-85035626D01*
X113964489Y-84719331D01*
X114538627Y-84262968D01*
X114860144Y-83644222D01*
X114983858Y-82840776D01*
X114990625Y-82539939D01*
X114919578Y-81688542D01*
X114639369Y-81107828D01*
X114248267Y-80715634D01*
X113505908Y-80077084D01*
X100849974Y-80077084D01*
X97919283Y-80078256D01*
G37*
X97919283Y-80078256D02*
X95471903Y-80082845D01*
X93461978Y-80092455D01*
X91843656Y-80108694D01*
X90571083Y-80133167D01*
X89598405Y-80167481D01*
X88879768Y-80213242D01*
X88369318Y-80272056D01*
X88021202Y-80345530D01*
X87789567Y-80435269D01*
X87631913Y-80540105D01*
X87024442Y-81345668D01*
X86772128Y-82353992D01*
X86868358Y-83397902D01*
X87306519Y-84310225D01*
X87799330Y-84772062D01*
X88133179Y-84943025D01*
X88594438Y-85071729D01*
X89263164Y-85166125D01*
X90219411Y-85234166D01*
X91543236Y-85283805D01*
X93314692Y-85322995D01*
X93352009Y-85323668D01*
X98196858Y-85410878D01*
X98057292Y-102434376D01*
X92043424Y-102566667D01*
X90110981Y-102610455D01*
X88636587Y-102651321D01*
X87549247Y-102697728D01*
X86777967Y-102758136D01*
X86251751Y-102841005D01*
X85899605Y-102954798D01*
X85650533Y-103107975D01*
X85433541Y-103308996D01*
X85383120Y-103360417D01*
X84779230Y-104309728D01*
X84625837Y-105366053D01*
X84924462Y-106385644D01*
X85345265Y-106944319D01*
X85994697Y-107593750D01*
X115676136Y-107593750D01*
X116325568Y-106944319D01*
X116786040Y-106306702D01*
X116963753Y-105493914D01*
X116975000Y-105115755D01*
X116907919Y-104282536D01*
X116631683Y-103711979D01*
X116160950Y-103251645D01*
X115346899Y-102566667D01*
X104010417Y-102566667D01*
X104010417Y-85368750D01*
X108045312Y-85367275D01*
X110178140Y-85337282D01*
X111839065Y-85234171D01*
X113082908Y-85035626D01*
X113964489Y-84719331D01*
X114538627Y-84262968D01*
X114860144Y-83644222D01*
X114983858Y-82840776D01*
X114990625Y-82539939D01*
X114919578Y-81688542D01*
X114639369Y-81107828D01*
X114248267Y-80715634D01*
X113505908Y-80077084D01*
X100849974Y-80077084D01*
X97919283Y-80078256D01*
G36*
X69109392Y-84335493D02*
G01*
X66677525Y-84349059D01*
X65028603Y-84360904D01*
X54224914Y-84442709D01*
X53453082Y-85306779D01*
X53092169Y-85740857D01*
X52865794Y-86152039D01*
X52742693Y-86676800D01*
X52691603Y-87451617D01*
X52681258Y-88612965D01*
X52681250Y-88676042D01*
X52690516Y-89857912D01*
X52739148Y-90647164D01*
X52858393Y-91180286D01*
X53079501Y-91593764D01*
X53433720Y-92024087D01*
X53452639Y-92045305D01*
X54224029Y-92909375D01*
X57685973Y-92996548D01*
X61147916Y-93083720D01*
X61147916Y-94629167D01*
X56424898Y-94629167D01*
X54421183Y-94643819D01*
X52879334Y-94695948D01*
X51732652Y-94797811D01*
X50914436Y-94961668D01*
X50357988Y-95199778D01*
X49996608Y-95524399D01*
X49807302Y-95845411D01*
X49538441Y-96677130D01*
X49659686Y-97325197D01*
X50155682Y-97948485D01*
X50805113Y-98597917D01*
X63202866Y-98597917D01*
X63362403Y-99193230D01*
X63490182Y-99742416D01*
X63525554Y-99986980D01*
X63277604Y-100056300D01*
X62592245Y-100115064D01*
X61561199Y-100158643D01*
X60276189Y-100182407D01*
X59593489Y-100185417D01*
X57756004Y-100195246D01*
X56364976Y-100233486D01*
X55337915Y-100313269D01*
X54592333Y-100447725D01*
X54045739Y-100649987D01*
X53615646Y-100933185D01*
X53346466Y-101179860D01*
X52944083Y-101679938D01*
X52744736Y-102265843D01*
X52686254Y-103139960D01*
X52685844Y-103330351D01*
X52761838Y-104611235D01*
X52959926Y-105991076D01*
X53246215Y-107314065D01*
X53586809Y-108424395D01*
X53947814Y-109166258D01*
X53958649Y-109181250D01*
X54682274Y-109795084D01*
X55800059Y-110290874D01*
X57182366Y-110625775D01*
X58699558Y-110756941D01*
X58726979Y-110757170D01*
X59678129Y-110740396D01*
X60297340Y-110628673D01*
X60781133Y-110354352D01*
X61306667Y-109869167D01*
X61997336Y-108942123D01*
X62189666Y-108103784D01*
X61910844Y-107421643D01*
X61188056Y-106963192D01*
X60068750Y-106795949D01*
X59116600Y-106738275D01*
X58531914Y-106516367D01*
X58158855Y-106044559D01*
X57989469Y-105652912D01*
X57778903Y-105066300D01*
X57714515Y-104657138D01*
X57864916Y-104393682D01*
X58298716Y-104244188D01*
X59084526Y-104176911D01*
X60290955Y-104160109D01*
X61214062Y-104160990D01*
X64719791Y-104167812D01*
X65645833Y-105532828D01*
X66685884Y-106765443D01*
X68051453Y-107964423D01*
X69551830Y-108979830D01*
X70812629Y-109595022D01*
X72110321Y-109879170D01*
X73294305Y-109673888D01*
X74415309Y-108963879D01*
X75056102Y-108315378D01*
X75651254Y-107688208D01*
X76007464Y-107465303D01*
X76173186Y-107591206D01*
X76446084Y-108029071D01*
X76936467Y-108603582D01*
X77045813Y-108715686D01*
X77981467Y-109329769D01*
X79004767Y-109442120D01*
X80035007Y-109052678D01*
X80474323Y-108718230D01*
X81024133Y-108085497D01*
X81266255Y-107380089D01*
X81198902Y-106505697D01*
X81044440Y-106040739D01*
X75415861Y-106040739D01*
X75318301Y-106318985D01*
X74960445Y-106320159D01*
X74319607Y-106118263D01*
X73360863Y-105721033D01*
X72345448Y-105215888D01*
X72090127Y-105071929D01*
X71195889Y-104431026D01*
X70344905Y-103641491D01*
X70155390Y-103426825D01*
X69716655Y-102760428D01*
X69269291Y-101863436D01*
X68866453Y-100878102D01*
X68561296Y-99946679D01*
X68406974Y-99211418D01*
X68440109Y-98836367D01*
X68752484Y-98732904D01*
X69469274Y-98652092D01*
X70465851Y-98605186D01*
X71080366Y-98597917D01*
X72193682Y-98588235D01*
X72928557Y-98618035D01*
X73382980Y-98775584D01*
X73654939Y-99149150D01*
X73842425Y-99827001D01*
X74043425Y-100897404D01*
X74127701Y-101342931D01*
X74399930Y-102532934D01*
X74752346Y-103802216D01*
X74931866Y-104360914D01*
X75278568Y-105412391D01*
X75415861Y-106040739D01*
X81044440Y-106040739D01*
X80820289Y-105366008D01*
X80394484Y-104412127D01*
X79849406Y-103185699D01*
X79416129Y-102000271D01*
X79079821Y-100767630D01*
X78825653Y-99399563D01*
X78638793Y-97807857D01*
X78504413Y-95904298D01*
X78450869Y-94629167D01*
X73353898Y-94629167D01*
X66139851Y-94629167D01*
X66307291Y-93173959D01*
X73186458Y-93173959D01*
X73353898Y-94629167D01*
X78450869Y-94629167D01*
X78407681Y-93600675D01*
X78371685Y-92380209D01*
X78311437Y-90293549D01*
X78246018Y-88681083D01*
X73318750Y-88681083D01*
X73318750Y-89337501D01*
X57673185Y-89337501D01*
X57756905Y-88609896D01*
X57840625Y-87882292D01*
X64984375Y-87807999D01*
X66904867Y-87793501D01*
X68674547Y-87790529D01*
X70217477Y-87798384D01*
X71457717Y-87816368D01*
X72319329Y-87843781D01*
X72723437Y-87879186D01*
X73208804Y-88191510D01*
X73318750Y-88681083D01*
X78246018Y-88681083D01*
X78245507Y-88668492D01*
X78158637Y-87437560D01*
X78035568Y-86533277D01*
X77861039Y-85888165D01*
X77619792Y-85434747D01*
X77296567Y-85105547D01*
X76876105Y-84833085D01*
X76635496Y-84702767D01*
X76383340Y-84596722D01*
X76035398Y-84510833D01*
X75541191Y-84443611D01*
X74850238Y-84393572D01*
X73912061Y-84359227D01*
X72676180Y-84339090D01*
X71092117Y-84331674D01*
X69109392Y-84335493D01*
G37*
X69109392Y-84335493D02*
X66677525Y-84349059D01*
X65028603Y-84360904D01*
X54224914Y-84442709D01*
X53453082Y-85306779D01*
X53092169Y-85740857D01*
X52865794Y-86152039D01*
X52742693Y-86676800D01*
X52691603Y-87451617D01*
X52681258Y-88612965D01*
X52681250Y-88676042D01*
X52690516Y-89857912D01*
X52739148Y-90647164D01*
X52858393Y-91180286D01*
X53079501Y-91593764D01*
X53433720Y-92024087D01*
X53452639Y-92045305D01*
X54224029Y-92909375D01*
X57685973Y-92996548D01*
X61147916Y-93083720D01*
X61147916Y-94629167D01*
X56424898Y-94629167D01*
X54421183Y-94643819D01*
X52879334Y-94695948D01*
X51732652Y-94797811D01*
X50914436Y-94961668D01*
X50357988Y-95199778D01*
X49996608Y-95524399D01*
X49807302Y-95845411D01*
X49538441Y-96677130D01*
X49659686Y-97325197D01*
X50155682Y-97948485D01*
X50805113Y-98597917D01*
X63202866Y-98597917D01*
X63362403Y-99193230D01*
X63490182Y-99742416D01*
X63525554Y-99986980D01*
X63277604Y-100056300D01*
X62592245Y-100115064D01*
X61561199Y-100158643D01*
X60276189Y-100182407D01*
X59593489Y-100185417D01*
X57756004Y-100195246D01*
X56364976Y-100233486D01*
X55337915Y-100313269D01*
X54592333Y-100447725D01*
X54045739Y-100649987D01*
X53615646Y-100933185D01*
X53346466Y-101179860D01*
X52944083Y-101679938D01*
X52744736Y-102265843D01*
X52686254Y-103139960D01*
X52685844Y-103330351D01*
X52761838Y-104611235D01*
X52959926Y-105991076D01*
X53246215Y-107314065D01*
X53586809Y-108424395D01*
X53947814Y-109166258D01*
X53958649Y-109181250D01*
X54682274Y-109795084D01*
X55800059Y-110290874D01*
X57182366Y-110625775D01*
X58699558Y-110756941D01*
X58726979Y-110757170D01*
X59678129Y-110740396D01*
X60297340Y-110628673D01*
X60781133Y-110354352D01*
X61306667Y-109869167D01*
X61997336Y-108942123D01*
X62189666Y-108103784D01*
X61910844Y-107421643D01*
X61188056Y-106963192D01*
X60068750Y-106795949D01*
X59116600Y-106738275D01*
X58531914Y-106516367D01*
X58158855Y-106044559D01*
X57989469Y-105652912D01*
X57778903Y-105066300D01*
X57714515Y-104657138D01*
X57864916Y-104393682D01*
X58298716Y-104244188D01*
X59084526Y-104176911D01*
X60290955Y-104160109D01*
X61214062Y-104160990D01*
X64719791Y-104167812D01*
X65645833Y-105532828D01*
X66685884Y-106765443D01*
X68051453Y-107964423D01*
X69551830Y-108979830D01*
X70812629Y-109595022D01*
X72110321Y-109879170D01*
X73294305Y-109673888D01*
X74415309Y-108963879D01*
X75056102Y-108315378D01*
X75651254Y-107688208D01*
X76007464Y-107465303D01*
X76173186Y-107591206D01*
X76446084Y-108029071D01*
X76936467Y-108603582D01*
X77045813Y-108715686D01*
X77981467Y-109329769D01*
X79004767Y-109442120D01*
X80035007Y-109052678D01*
X80474323Y-108718230D01*
X81024133Y-108085497D01*
X81266255Y-107380089D01*
X81198902Y-106505697D01*
X81044440Y-106040739D01*
X75415861Y-106040739D01*
X75318301Y-106318985D01*
X74960445Y-106320159D01*
X74319607Y-106118263D01*
X73360863Y-105721033D01*
X72345448Y-105215888D01*
X72090127Y-105071929D01*
X71195889Y-104431026D01*
X70344905Y-103641491D01*
X70155390Y-103426825D01*
X69716655Y-102760428D01*
X69269291Y-101863436D01*
X68866453Y-100878102D01*
X68561296Y-99946679D01*
X68406974Y-99211418D01*
X68440109Y-98836367D01*
X68752484Y-98732904D01*
X69469274Y-98652092D01*
X70465851Y-98605186D01*
X71080366Y-98597917D01*
X72193682Y-98588235D01*
X72928557Y-98618035D01*
X73382980Y-98775584D01*
X73654939Y-99149150D01*
X73842425Y-99827001D01*
X74043425Y-100897404D01*
X74127701Y-101342931D01*
X74399930Y-102532934D01*
X74752346Y-103802216D01*
X74931866Y-104360914D01*
X75278568Y-105412391D01*
X75415861Y-106040739D01*
X81044440Y-106040739D01*
X80820289Y-105366008D01*
X80394484Y-104412127D01*
X79849406Y-103185699D01*
X79416129Y-102000271D01*
X79079821Y-100767630D01*
X78825653Y-99399563D01*
X78638793Y-97807857D01*
X78504413Y-95904298D01*
X78450869Y-94629167D01*
X73353898Y-94629167D01*
X66139851Y-94629167D01*
X66307291Y-93173959D01*
X73186458Y-93173959D01*
X73353898Y-94629167D01*
X78450869Y-94629167D01*
X78407681Y-93600675D01*
X78371685Y-92380209D01*
X78311437Y-90293549D01*
X78246018Y-88681083D01*
X73318750Y-88681083D01*
X73318750Y-89337501D01*
X57673185Y-89337501D01*
X57756905Y-88609896D01*
X57840625Y-87882292D01*
X64984375Y-87807999D01*
X66904867Y-87793501D01*
X68674547Y-87790529D01*
X70217477Y-87798384D01*
X71457717Y-87816368D01*
X72319329Y-87843781D01*
X72723437Y-87879186D01*
X73208804Y-88191510D01*
X73318750Y-88681083D01*
X78246018Y-88681083D01*
X78245507Y-88668492D01*
X78158637Y-87437560D01*
X78035568Y-86533277D01*
X77861039Y-85888165D01*
X77619792Y-85434747D01*
X77296567Y-85105547D01*
X76876105Y-84833085D01*
X76635496Y-84702767D01*
X76383340Y-84596722D01*
X76035398Y-84510833D01*
X75541191Y-84443611D01*
X74850238Y-84393572D01*
X73912061Y-84359227D01*
X72676180Y-84339090D01*
X71092117Y-84331674D01*
X69109392Y-84335493D01*
G36*
X174995499Y-78443427D02*
G01*
X172652356Y-78459878D01*
X170420882Y-78489564D01*
X168365144Y-78532484D01*
X166549208Y-78588640D01*
X165037143Y-78658030D01*
X163893014Y-78740656D01*
X163180889Y-78836516D01*
X163003839Y-78890937D01*
X162668542Y-79066454D01*
X162383913Y-79246689D01*
X162146033Y-79473662D01*
X161950983Y-79789396D01*
X161794844Y-80235913D01*
X161673696Y-80855232D01*
X161583620Y-81689377D01*
X161520697Y-82780369D01*
X161481008Y-84170228D01*
X161460632Y-85900978D01*
X161455652Y-88014638D01*
X161462147Y-90553232D01*
X161476199Y-93558779D01*
X161484485Y-95181114D01*
X161557292Y-109491911D01*
X162299650Y-110130331D01*
X163062363Y-110556847D01*
X164012636Y-110780849D01*
X164979261Y-110797600D01*
X165791028Y-110602363D01*
X166248902Y-110239584D01*
X166348336Y-110105883D01*
X166496861Y-109996824D01*
X166744962Y-109909899D01*
X167143120Y-109842601D01*
X167741818Y-109792423D01*
X168591537Y-109756858D01*
X169742760Y-109733398D01*
X171245969Y-109719536D01*
X173151647Y-109712764D01*
X175510275Y-109710576D01*
X176903125Y-109710417D01*
X179512069Y-109711234D01*
X181642329Y-109715356D01*
X183344388Y-109725290D01*
X184668727Y-109743545D01*
X185665830Y-109772626D01*
X186386177Y-109815042D01*
X186880252Y-109873299D01*
X187198536Y-109949906D01*
X187391512Y-110047369D01*
X187509662Y-110168195D01*
X187557347Y-110239584D01*
X187895707Y-110575533D01*
X188465763Y-110734769D01*
X189228844Y-110768750D01*
X190129145Y-110713873D01*
X190748634Y-110490171D01*
X191329549Y-110009041D01*
X191343269Y-109995353D01*
X192116666Y-109221956D01*
X192116666Y-95033256D01*
X192116391Y-91803977D01*
X192112813Y-89061649D01*
X192101803Y-86764058D01*
X192079233Y-84868990D01*
X192040972Y-83334228D01*
X192024421Y-82987501D01*
X187354166Y-82987501D01*
X187354166Y-91851042D01*
X187347762Y-93956743D01*
X187329575Y-95883653D01*
X187301147Y-97570574D01*
X187264019Y-98956304D01*
X187219731Y-99979646D01*
X187169825Y-100579399D01*
X187131004Y-100714584D01*
X186618176Y-100616223D01*
X185790875Y-100351843D01*
X184757153Y-99967496D01*
X183625063Y-99509233D01*
X182502655Y-99023107D01*
X181497982Y-98555170D01*
X180719094Y-98151474D01*
X180274045Y-97858071D01*
X180210416Y-97764999D01*
X180334133Y-97695051D01*
X174042928Y-97695051D01*
X174013124Y-97969596D01*
X173687118Y-98378646D01*
X173184098Y-98782709D01*
X172684169Y-98760618D01*
X172074479Y-98348266D01*
X171647618Y-97944624D01*
X171479167Y-97695611D01*
X171717270Y-97606582D01*
X172326025Y-97550091D01*
X172802083Y-97539584D01*
X173658049Y-97569538D01*
X174042928Y-97695051D01*
X180334133Y-97695051D01*
X180447129Y-97631165D01*
X181046695Y-97550390D01*
X181414181Y-97539584D01*
X182808511Y-97362329D01*
X183815685Y-96825340D01*
X184443749Y-95920783D01*
X184670014Y-94793891D01*
X180710780Y-94793891D01*
X180638988Y-94955704D01*
X180398361Y-95060732D01*
X179910799Y-95121248D01*
X179098200Y-95149523D01*
X177882463Y-95157830D01*
X176903125Y-95158334D01*
X175401330Y-95156205D01*
X174350600Y-95141639D01*
X173672834Y-95102362D01*
X173289931Y-95026104D01*
X173123790Y-94900592D01*
X173096310Y-94713555D01*
X173114410Y-94563021D01*
X173166198Y-94327698D01*
X173298941Y-94164330D01*
X173596167Y-94059793D01*
X174141403Y-94000961D01*
X175018174Y-93974711D01*
X176310008Y-93967919D01*
X176903125Y-93967709D01*
X178367775Y-93970661D01*
X179386788Y-93988265D01*
X180043689Y-94033648D01*
X180422007Y-94119932D01*
X180605267Y-94260243D01*
X180676997Y-94467704D01*
X180691839Y-94563021D01*
X180710780Y-94793891D01*
X184670014Y-94793891D01*
X184700749Y-94640822D01*
X184708333Y-94331782D01*
X184587724Y-93435566D01*
X184142655Y-92712153D01*
X183934936Y-92492148D01*
X183161538Y-91718750D01*
X176850057Y-91718750D01*
X174810732Y-91723152D01*
X173233615Y-91739134D01*
X172051801Y-91770863D01*
X171198386Y-91822508D01*
X170606462Y-91898234D01*
X170209124Y-92002208D01*
X169939466Y-92138598D01*
X169922589Y-92150205D01*
X169205188Y-92959378D01*
X168740182Y-94161745D01*
X168561148Y-95668692D01*
X168560335Y-95745148D01*
X168478045Y-96711796D01*
X168273440Y-97460974D01*
X168163460Y-97656299D01*
X167863163Y-98133239D01*
X167847946Y-98527757D01*
X168162118Y-98983271D01*
X168748775Y-99550784D01*
X169282988Y-100071312D01*
X169583438Y-100426334D01*
X169608671Y-100512510D01*
X169317605Y-100669163D01*
X168761413Y-100957118D01*
X168701042Y-100988009D01*
X168016889Y-101558997D01*
X167827116Y-102269968D01*
X168145761Y-103038894D01*
X168315598Y-103240294D01*
X169017538Y-103777544D01*
X169843684Y-103980872D01*
X170848809Y-103839172D01*
X172087686Y-103341337D01*
X173615087Y-102476262D01*
X174323437Y-102022066D01*
X174879070Y-101670196D01*
X175122054Y-101605771D01*
X175181776Y-101825329D01*
X175183333Y-101999069D01*
X175417406Y-103039650D01*
X176044213Y-103858640D01*
X176950638Y-104339965D01*
X177541351Y-104418750D01*
X178250791Y-104194062D01*
X178943273Y-103629500D01*
X179440997Y-102889321D01*
X179549666Y-102563443D01*
X179705548Y-102010571D01*
X179840835Y-101773086D01*
X179843360Y-101772917D01*
X180126396Y-101882857D01*
X180729075Y-102166159D01*
X181268750Y-102434376D01*
X182714100Y-102965826D01*
X184042613Y-103006737D01*
X185320147Y-102546372D01*
X186612560Y-101573995D01*
X186626562Y-101560919D01*
X187354166Y-100880165D01*
X187354166Y-102869944D01*
X187331822Y-103850879D01*
X187272793Y-104615416D01*
X187189084Y-105018439D01*
X187174714Y-105039175D01*
X186878763Y-105077345D01*
X186112052Y-105109216D01*
X184932954Y-105134171D01*
X183399847Y-105151587D01*
X181571105Y-105160847D01*
X179505104Y-105161330D01*
X177260219Y-105152417D01*
X176789818Y-105149418D01*
X166584375Y-105080209D01*
X166446277Y-82987501D01*
X187354166Y-82987501D01*
X192024421Y-82987501D01*
X191982894Y-82117560D01*
X191900867Y-81176770D01*
X191790765Y-80469643D01*
X191648457Y-79953965D01*
X191469815Y-79587521D01*
X191250710Y-79328097D01*
X190987012Y-79133478D01*
X190674594Y-78961449D01*
X190537827Y-78890937D01*
X190072680Y-78788275D01*
X189142598Y-78698847D01*
X187811649Y-78622653D01*
X186143900Y-78559695D01*
X184203418Y-78509972D01*
X182054270Y-78473483D01*
X179760523Y-78450230D01*
X177386243Y-78440211D01*
X174995499Y-78443427D01*
G37*
X174995499Y-78443427D02*
X172652356Y-78459878D01*
X170420882Y-78489564D01*
X168365144Y-78532484D01*
X166549208Y-78588640D01*
X165037143Y-78658030D01*
X163893014Y-78740656D01*
X163180889Y-78836516D01*
X163003839Y-78890937D01*
X162668542Y-79066454D01*
X162383913Y-79246689D01*
X162146033Y-79473662D01*
X161950983Y-79789396D01*
X161794844Y-80235913D01*
X161673696Y-80855232D01*
X161583620Y-81689377D01*
X161520697Y-82780369D01*
X161481008Y-84170228D01*
X161460632Y-85900978D01*
X161455652Y-88014638D01*
X161462147Y-90553232D01*
X161476199Y-93558779D01*
X161484485Y-95181114D01*
X161557292Y-109491911D01*
X162299650Y-110130331D01*
X163062363Y-110556847D01*
X164012636Y-110780849D01*
X164979261Y-110797600D01*
X165791028Y-110602363D01*
X166248902Y-110239584D01*
X166348336Y-110105883D01*
X166496861Y-109996824D01*
X166744962Y-109909899D01*
X167143120Y-109842601D01*
X167741818Y-109792423D01*
X168591537Y-109756858D01*
X169742760Y-109733398D01*
X171245969Y-109719536D01*
X173151647Y-109712764D01*
X175510275Y-109710576D01*
X176903125Y-109710417D01*
X179512069Y-109711234D01*
X181642329Y-109715356D01*
X183344388Y-109725290D01*
X184668727Y-109743545D01*
X185665830Y-109772626D01*
X186386177Y-109815042D01*
X186880252Y-109873299D01*
X187198536Y-109949906D01*
X187391512Y-110047369D01*
X187509662Y-110168195D01*
X187557347Y-110239584D01*
X187895707Y-110575533D01*
X188465763Y-110734769D01*
X189228844Y-110768750D01*
X190129145Y-110713873D01*
X190748634Y-110490171D01*
X191329549Y-110009041D01*
X191343269Y-109995353D01*
X192116666Y-109221956D01*
X192116666Y-95033256D01*
X192116391Y-91803977D01*
X192112813Y-89061649D01*
X192101803Y-86764058D01*
X192079233Y-84868990D01*
X192040972Y-83334228D01*
X192024421Y-82987501D01*
X187354166Y-82987501D01*
X187354166Y-91851042D01*
X187347762Y-93956743D01*
X187329575Y-95883653D01*
X187301147Y-97570574D01*
X187264019Y-98956304D01*
X187219731Y-99979646D01*
X187169825Y-100579399D01*
X187131004Y-100714584D01*
X186618176Y-100616223D01*
X185790875Y-100351843D01*
X184757153Y-99967496D01*
X183625063Y-99509233D01*
X182502655Y-99023107D01*
X181497982Y-98555170D01*
X180719094Y-98151474D01*
X180274045Y-97858071D01*
X180210416Y-97764999D01*
X180334133Y-97695051D01*
X174042928Y-97695051D01*
X174013124Y-97969596D01*
X173687118Y-98378646D01*
X173184098Y-98782709D01*
X172684169Y-98760618D01*
X172074479Y-98348266D01*
X171647618Y-97944624D01*
X171479167Y-97695611D01*
X171717270Y-97606582D01*
X172326025Y-97550091D01*
X172802083Y-97539584D01*
X173658049Y-97569538D01*
X174042928Y-97695051D01*
X180334133Y-97695051D01*
X180447129Y-97631165D01*
X181046695Y-97550390D01*
X181414181Y-97539584D01*
X182808511Y-97362329D01*
X183815685Y-96825340D01*
X184443749Y-95920783D01*
X184670014Y-94793891D01*
X180710780Y-94793891D01*
X180638988Y-94955704D01*
X180398361Y-95060732D01*
X179910799Y-95121248D01*
X179098200Y-95149523D01*
X177882463Y-95157830D01*
X176903125Y-95158334D01*
X175401330Y-95156205D01*
X174350600Y-95141639D01*
X173672834Y-95102362D01*
X173289931Y-95026104D01*
X173123790Y-94900592D01*
X173096310Y-94713555D01*
X173114410Y-94563021D01*
X173166198Y-94327698D01*
X173298941Y-94164330D01*
X173596167Y-94059793D01*
X174141403Y-94000961D01*
X175018174Y-93974711D01*
X176310008Y-93967919D01*
X176903125Y-93967709D01*
X178367775Y-93970661D01*
X179386788Y-93988265D01*
X180043689Y-94033648D01*
X180422007Y-94119932D01*
X180605267Y-94260243D01*
X180676997Y-94467704D01*
X180691839Y-94563021D01*
X180710780Y-94793891D01*
X184670014Y-94793891D01*
X184700749Y-94640822D01*
X184708333Y-94331782D01*
X184587724Y-93435566D01*
X184142655Y-92712153D01*
X183934936Y-92492148D01*
X183161538Y-91718750D01*
X176850057Y-91718750D01*
X174810732Y-91723152D01*
X173233615Y-91739134D01*
X172051801Y-91770863D01*
X171198386Y-91822508D01*
X170606462Y-91898234D01*
X170209124Y-92002208D01*
X169939466Y-92138598D01*
X169922589Y-92150205D01*
X169205188Y-92959378D01*
X168740182Y-94161745D01*
X168561148Y-95668692D01*
X168560335Y-95745148D01*
X168478045Y-96711796D01*
X168273440Y-97460974D01*
X168163460Y-97656299D01*
X167863163Y-98133239D01*
X167847946Y-98527757D01*
X168162118Y-98983271D01*
X168748775Y-99550784D01*
X169282988Y-100071312D01*
X169583438Y-100426334D01*
X169608671Y-100512510D01*
X169317605Y-100669163D01*
X168761413Y-100957118D01*
X168701042Y-100988009D01*
X168016889Y-101558997D01*
X167827116Y-102269968D01*
X168145761Y-103038894D01*
X168315598Y-103240294D01*
X169017538Y-103777544D01*
X169843684Y-103980872D01*
X170848809Y-103839172D01*
X172087686Y-103341337D01*
X173615087Y-102476262D01*
X174323437Y-102022066D01*
X174879070Y-101670196D01*
X175122054Y-101605771D01*
X175181776Y-101825329D01*
X175183333Y-101999069D01*
X175417406Y-103039650D01*
X176044213Y-103858640D01*
X176950638Y-104339965D01*
X177541351Y-104418750D01*
X178250791Y-104194062D01*
X178943273Y-103629500D01*
X179440997Y-102889321D01*
X179549666Y-102563443D01*
X179705548Y-102010571D01*
X179840835Y-101773086D01*
X179843360Y-101772917D01*
X180126396Y-101882857D01*
X180729075Y-102166159D01*
X181268750Y-102434376D01*
X182714100Y-102965826D01*
X184042613Y-103006737D01*
X185320147Y-102546372D01*
X186612560Y-101573995D01*
X186626562Y-101560919D01*
X187354166Y-100880165D01*
X187354166Y-102869944D01*
X187331822Y-103850879D01*
X187272793Y-104615416D01*
X187189084Y-105018439D01*
X187174714Y-105039175D01*
X186878763Y-105077345D01*
X186112052Y-105109216D01*
X184932954Y-105134171D01*
X183399847Y-105151587D01*
X181571105Y-105160847D01*
X179505104Y-105161330D01*
X177260219Y-105152417D01*
X176789818Y-105149418D01*
X166584375Y-105080209D01*
X166446277Y-82987501D01*
X187354166Y-82987501D01*
X192024421Y-82987501D01*
X191982894Y-82117560D01*
X191900867Y-81176770D01*
X191790765Y-80469643D01*
X191648457Y-79953965D01*
X191469815Y-79587521D01*
X191250710Y-79328097D01*
X190987012Y-79133478D01*
X190674594Y-78961449D01*
X190537827Y-78890937D01*
X190072680Y-78788275D01*
X189142598Y-78698847D01*
X187811649Y-78622653D01*
X186143900Y-78559695D01*
X184203418Y-78509972D01*
X182054270Y-78473483D01*
X179760523Y-78450230D01*
X177386243Y-78440211D01*
X174995499Y-78443427D01*
G36*
X200473622Y-79854042D02*
G01*
X199225432Y-79900562D01*
X198382265Y-79964722D01*
X197820181Y-80078923D01*
X197415243Y-80275566D01*
X197043512Y-80587053D01*
X196817506Y-80809857D01*
X195953125Y-81674922D01*
X195953125Y-92583815D01*
X195956434Y-95408059D01*
X195967317Y-97749172D01*
X195987214Y-99653156D01*
X196017559Y-101166010D01*
X196059790Y-102333736D01*
X196115343Y-103202334D01*
X196185657Y-103817805D01*
X196272166Y-104226150D01*
X196321122Y-104365082D01*
X196906543Y-105193721D01*
X197768867Y-105788202D01*
X198671990Y-106006250D01*
X199323473Y-105758750D01*
X199972099Y-105075131D01*
X200544463Y-104043717D01*
X200753498Y-103501682D01*
X200997203Y-102733509D01*
X201054384Y-102300240D01*
X200925147Y-102041615D01*
X200754546Y-101900951D01*
X200634233Y-101768163D01*
X200538057Y-101528435D01*
X200463379Y-101127382D01*
X200407557Y-100510623D01*
X200367950Y-99623775D01*
X200341917Y-98412456D01*
X200326815Y-96822282D01*
X200320005Y-94798872D01*
X200318750Y-92927951D01*
X200318750Y-84273613D01*
X200914062Y-84358161D01*
X201509375Y-84442709D01*
X201578076Y-97059369D01*
X201646776Y-109676030D01*
X202341361Y-110222390D01*
X203304651Y-110697600D01*
X204283496Y-110680801D01*
X205167026Y-110175956D01*
X205225568Y-110119319D01*
X205875000Y-109469887D01*
X205875000Y-95602917D01*
X205874366Y-92537374D01*
X205871408Y-89956756D01*
X205864541Y-87816822D01*
X205852182Y-86073328D01*
X205832747Y-84682035D01*
X205804651Y-83598700D01*
X205766310Y-82779082D01*
X205716140Y-82178939D01*
X205652558Y-81754030D01*
X205573978Y-81460113D01*
X205478817Y-81252946D01*
X205365491Y-81088289D01*
X205354801Y-81074621D01*
X204805111Y-80515683D01*
X204125627Y-80139827D01*
X203215988Y-79921959D01*
X201975832Y-79836980D01*
X200473622Y-79854042D01*
G37*
X200473622Y-79854042D02*
X199225432Y-79900562D01*
X198382265Y-79964722D01*
X197820181Y-80078923D01*
X197415243Y-80275566D01*
X197043512Y-80587053D01*
X196817506Y-80809857D01*
X195953125Y-81674922D01*
X195953125Y-92583815D01*
X195956434Y-95408059D01*
X195967317Y-97749172D01*
X195987214Y-99653156D01*
X196017559Y-101166010D01*
X196059790Y-102333736D01*
X196115343Y-103202334D01*
X196185657Y-103817805D01*
X196272166Y-104226150D01*
X196321122Y-104365082D01*
X196906543Y-105193721D01*
X197768867Y-105788202D01*
X198671990Y-106006250D01*
X199323473Y-105758750D01*
X199972099Y-105075131D01*
X200544463Y-104043717D01*
X200753498Y-103501682D01*
X200997203Y-102733509D01*
X201054384Y-102300240D01*
X200925147Y-102041615D01*
X200754546Y-101900951D01*
X200634233Y-101768163D01*
X200538057Y-101528435D01*
X200463379Y-101127382D01*
X200407557Y-100510623D01*
X200367950Y-99623775D01*
X200341917Y-98412456D01*
X200326815Y-96822282D01*
X200320005Y-94798872D01*
X200318750Y-92927951D01*
X200318750Y-84273613D01*
X200914062Y-84358161D01*
X201509375Y-84442709D01*
X201578076Y-97059369D01*
X201646776Y-109676030D01*
X202341361Y-110222390D01*
X203304651Y-110697600D01*
X204283496Y-110680801D01*
X205167026Y-110175956D01*
X205225568Y-110119319D01*
X205875000Y-109469887D01*
X205875000Y-95602917D01*
X205874366Y-92537374D01*
X205871408Y-89956756D01*
X205864541Y-87816822D01*
X205852182Y-86073328D01*
X205832747Y-84682035D01*
X205804651Y-83598700D01*
X205766310Y-82779082D01*
X205716140Y-82178939D01*
X205652558Y-81754030D01*
X205573978Y-81460113D01*
X205478817Y-81252946D01*
X205365491Y-81088289D01*
X205354801Y-81074621D01*
X204805111Y-80515683D01*
X204125627Y-80139827D01*
X203215988Y-79921959D01*
X201975832Y-79836980D01*
X200473622Y-79854042D01*
G36*
X215102527Y-77790279D02*
G01*
X214293525Y-78189400D01*
X213731327Y-78874690D01*
X213547916Y-79675329D01*
X213547916Y-80558083D01*
X210746399Y-80648313D01*
X209491886Y-80695733D01*
X208649798Y-80760219D01*
X208103509Y-80870000D01*
X207736395Y-81053308D01*
X207431830Y-81338371D01*
X207306815Y-81480900D01*
X206874483Y-82161450D01*
X206671025Y-82831284D01*
X206668750Y-82890316D01*
X206891522Y-83606304D01*
X207448106Y-84324932D01*
X208170903Y-84879712D01*
X208892314Y-85104153D01*
X208897356Y-85104167D01*
X209264730Y-85132222D01*
X209468798Y-85296439D01*
X209557497Y-85716892D01*
X209578766Y-86513658D01*
X209579166Y-86811970D01*
X209579166Y-88519772D01*
X208648481Y-88694370D01*
X207665340Y-89087605D01*
X207022059Y-89755918D01*
X206721978Y-90580545D01*
X206768439Y-91442722D01*
X207164781Y-92223687D01*
X207914345Y-92804675D01*
X208527200Y-93006297D01*
X209087702Y-93156799D01*
X209370578Y-93417416D01*
X209489499Y-93951102D01*
X209527518Y-94440314D01*
X209554929Y-95194555D01*
X209465485Y-95561048D01*
X209194558Y-95678628D01*
X208946959Y-95687501D01*
X208170078Y-95914531D01*
X207426460Y-96489015D01*
X206899691Y-97251041D01*
X206792834Y-97563837D01*
X206857437Y-98324313D01*
X207294043Y-99075976D01*
X207967095Y-99660349D01*
X208741037Y-99918952D01*
X208808936Y-99920834D01*
X209579166Y-99920834D01*
X209579166Y-103625000D01*
X208561840Y-103625000D01*
X207558884Y-103812728D01*
X206929508Y-104375223D01*
X206674744Y-105311452D01*
X206668750Y-105517943D01*
X206711741Y-106139245D01*
X206881972Y-106631405D01*
X207241329Y-107022318D01*
X207851697Y-107339881D01*
X208774961Y-107611989D01*
X210073007Y-107866538D01*
X211807722Y-108131426D01*
X212758292Y-108262924D01*
X214334436Y-108464312D01*
X215757737Y-108622524D01*
X216934116Y-108728978D01*
X217769495Y-108775089D01*
X218159806Y-108755730D01*
X219100507Y-108225222D01*
X219730454Y-107284577D01*
X219912733Y-106744975D01*
X220070382Y-105639209D01*
X219853383Y-104895185D01*
X219355216Y-104546747D01*
X219163812Y-104454549D01*
X219026596Y-104266487D01*
X218934612Y-103904474D01*
X218878906Y-103290419D01*
X218850522Y-102346234D01*
X218840507Y-100993832D01*
X218839583Y-100050299D01*
X218836478Y-98441871D01*
X218820308Y-97279655D01*
X218780794Y-96480703D01*
X218707655Y-95962066D01*
X218590611Y-95640796D01*
X218419382Y-95433946D01*
X218251545Y-95305628D01*
X217326997Y-94920755D01*
X216432913Y-95018591D01*
X215687656Y-95585987D01*
X215683787Y-95590890D01*
X215470017Y-95905471D01*
X215319999Y-96277981D01*
X215222630Y-96802542D01*
X215166810Y-97573276D01*
X215141440Y-98684306D01*
X215135417Y-100229754D01*
X215135417Y-100240499D01*
X215130794Y-101765171D01*
X215110862Y-102836611D01*
X215066524Y-103530715D01*
X214988684Y-103923382D01*
X214868246Y-104090507D01*
X214696113Y-104107989D01*
X214672396Y-104103798D01*
X214515953Y-104034872D01*
X214399097Y-103851554D01*
X214316136Y-103486116D01*
X214261380Y-102870831D01*
X214229135Y-101937974D01*
X214213710Y-100619816D01*
X214209413Y-98848631D01*
X214209375Y-98594294D01*
X214209375Y-93173959D01*
X216058814Y-93094277D01*
X217435892Y-92938247D01*
X218364359Y-92583139D01*
X218900270Y-91989021D01*
X219099682Y-91115964D01*
X219104166Y-90925001D01*
X218942614Y-89970523D01*
X218426484Y-89291589D01*
X217508570Y-88853585D01*
X216141664Y-88621895D01*
X215941603Y-88606053D01*
X214077083Y-88472648D01*
X214077083Y-86788407D01*
X214094531Y-85868833D01*
X214171287Y-85360194D01*
X214343968Y-85144744D01*
X214600872Y-85104167D01*
X215121640Y-85364860D01*
X215649394Y-86132886D01*
X215662424Y-86158267D01*
X216228172Y-86972684D01*
X216957337Y-87387404D01*
X217982905Y-87466708D01*
X218314804Y-87440288D01*
X218789405Y-87428452D01*
X219143217Y-87574023D01*
X219489559Y-87974309D01*
X219941750Y-88726620D01*
X220061988Y-88940626D01*
X220949940Y-90528125D01*
X220956250Y-109469887D01*
X221605682Y-110119319D01*
X222482891Y-110650088D01*
X223519968Y-110711280D01*
X224299503Y-110459297D01*
X224655216Y-110239949D01*
X224930307Y-109925683D01*
X225134883Y-109452000D01*
X225279048Y-108754398D01*
X225372911Y-107768377D01*
X225426576Y-106429436D01*
X225450151Y-104673074D01*
X225454166Y-103089933D01*
X225454166Y-97288098D01*
X226083526Y-97527380D01*
X226854517Y-97576710D01*
X227535831Y-97105234D01*
X228126332Y-96113852D01*
X228249510Y-95811527D01*
X228512328Y-94792479D01*
X228457891Y-93816033D01*
X228055441Y-92773176D01*
X227274222Y-91554891D01*
X226913808Y-91077413D01*
X226128900Y-90013983D01*
X225313900Y-88827933D01*
X224769961Y-87977137D01*
X223906452Y-86778081D01*
X223010894Y-86036459D01*
X221982882Y-85684972D01*
X221273141Y-85633334D01*
X220736019Y-85612568D01*
X220368049Y-85482081D01*
X220063021Y-85139585D01*
X219714728Y-84482792D01*
X219418746Y-83847396D01*
X218896982Y-82623422D01*
X218379616Y-81264703D01*
X218049008Y-80285164D01*
X217631417Y-79167365D01*
X217185539Y-78376379D01*
X216920976Y-78102352D01*
X216023341Y-77740279D01*
X215102527Y-77790279D01*
G37*
X215102527Y-77790279D02*
X214293525Y-78189400D01*
X213731327Y-78874690D01*
X213547916Y-79675329D01*
X213547916Y-80558083D01*
X210746399Y-80648313D01*
X209491886Y-80695733D01*
X208649798Y-80760219D01*
X208103509Y-80870000D01*
X207736395Y-81053308D01*
X207431830Y-81338371D01*
X207306815Y-81480900D01*
X206874483Y-82161450D01*
X206671025Y-82831284D01*
X206668750Y-82890316D01*
X206891522Y-83606304D01*
X207448106Y-84324932D01*
X208170903Y-84879712D01*
X208892314Y-85104153D01*
X208897356Y-85104167D01*
X209264730Y-85132222D01*
X209468798Y-85296439D01*
X209557497Y-85716892D01*
X209578766Y-86513658D01*
X209579166Y-86811970D01*
X209579166Y-88519772D01*
X208648481Y-88694370D01*
X207665340Y-89087605D01*
X207022059Y-89755918D01*
X206721978Y-90580545D01*
X206768439Y-91442722D01*
X207164781Y-92223687D01*
X207914345Y-92804675D01*
X208527200Y-93006297D01*
X209087702Y-93156799D01*
X209370578Y-93417416D01*
X209489499Y-93951102D01*
X209527518Y-94440314D01*
X209554929Y-95194555D01*
X209465485Y-95561048D01*
X209194558Y-95678628D01*
X208946959Y-95687501D01*
X208170078Y-95914531D01*
X207426460Y-96489015D01*
X206899691Y-97251041D01*
X206792834Y-97563837D01*
X206857437Y-98324313D01*
X207294043Y-99075976D01*
X207967095Y-99660349D01*
X208741037Y-99918952D01*
X208808936Y-99920834D01*
X209579166Y-99920834D01*
X209579166Y-103625000D01*
X208561840Y-103625000D01*
X207558884Y-103812728D01*
X206929508Y-104375223D01*
X206674744Y-105311452D01*
X206668750Y-105517943D01*
X206711741Y-106139245D01*
X206881972Y-106631405D01*
X207241329Y-107022318D01*
X207851697Y-107339881D01*
X208774961Y-107611989D01*
X210073007Y-107866538D01*
X211807722Y-108131426D01*
X212758292Y-108262924D01*
X214334436Y-108464312D01*
X215757737Y-108622524D01*
X216934116Y-108728978D01*
X217769495Y-108775089D01*
X218159806Y-108755730D01*
X219100507Y-108225222D01*
X219730454Y-107284577D01*
X219912733Y-106744975D01*
X220070382Y-105639209D01*
X219853383Y-104895185D01*
X219355216Y-104546747D01*
X219163812Y-104454549D01*
X219026596Y-104266487D01*
X218934612Y-103904474D01*
X218878906Y-103290419D01*
X218850522Y-102346234D01*
X218840507Y-100993832D01*
X218839583Y-100050299D01*
X218836478Y-98441871D01*
X218820308Y-97279655D01*
X218780794Y-96480703D01*
X218707655Y-95962066D01*
X218590611Y-95640796D01*
X218419382Y-95433946D01*
X218251545Y-95305628D01*
X217326997Y-94920755D01*
X216432913Y-95018591D01*
X215687656Y-95585987D01*
X215683787Y-95590890D01*
X215470017Y-95905471D01*
X215319999Y-96277981D01*
X215222630Y-96802542D01*
X215166810Y-97573276D01*
X215141440Y-98684306D01*
X215135417Y-100229754D01*
X215135417Y-100240499D01*
X215130794Y-101765171D01*
X215110862Y-102836611D01*
X215066524Y-103530715D01*
X214988684Y-103923382D01*
X214868246Y-104090507D01*
X214696113Y-104107989D01*
X214672396Y-104103798D01*
X214515953Y-104034872D01*
X214399097Y-103851554D01*
X214316136Y-103486116D01*
X214261380Y-102870831D01*
X214229135Y-101937974D01*
X214213710Y-100619816D01*
X214209413Y-98848631D01*
X214209375Y-98594294D01*
X214209375Y-93173959D01*
X216058814Y-93094277D01*
X217435892Y-92938247D01*
X218364359Y-92583139D01*
X218900270Y-91989021D01*
X219099682Y-91115964D01*
X219104166Y-90925001D01*
X218942614Y-89970523D01*
X218426484Y-89291589D01*
X217508570Y-88853585D01*
X216141664Y-88621895D01*
X215941603Y-88606053D01*
X214077083Y-88472648D01*
X214077083Y-86788407D01*
X214094531Y-85868833D01*
X214171287Y-85360194D01*
X214343968Y-85144744D01*
X214600872Y-85104167D01*
X215121640Y-85364860D01*
X215649394Y-86132886D01*
X215662424Y-86158267D01*
X216228172Y-86972684D01*
X216957337Y-87387404D01*
X217982905Y-87466708D01*
X218314804Y-87440288D01*
X218789405Y-87428452D01*
X219143217Y-87574023D01*
X219489559Y-87974309D01*
X219941750Y-88726620D01*
X220061988Y-88940626D01*
X220949940Y-90528125D01*
X220956250Y-109469887D01*
X221605682Y-110119319D01*
X222482891Y-110650088D01*
X223519968Y-110711280D01*
X224299503Y-110459297D01*
X224655216Y-110239949D01*
X224930307Y-109925683D01*
X225134883Y-109452000D01*
X225279048Y-108754398D01*
X225372911Y-107768377D01*
X225426576Y-106429436D01*
X225450151Y-104673074D01*
X225454166Y-103089933D01*
X225454166Y-97288098D01*
X226083526Y-97527380D01*
X226854517Y-97576710D01*
X227535831Y-97105234D01*
X228126332Y-96113852D01*
X228249510Y-95811527D01*
X228512328Y-94792479D01*
X228457891Y-93816033D01*
X228055441Y-92773176D01*
X227274222Y-91554891D01*
X226913808Y-91077413D01*
X226128900Y-90013983D01*
X225313900Y-88827933D01*
X224769961Y-87977137D01*
X223906452Y-86778081D01*
X223010894Y-86036459D01*
X221982882Y-85684972D01*
X221273141Y-85633334D01*
X220736019Y-85612568D01*
X220368049Y-85482081D01*
X220063021Y-85139585D01*
X219714728Y-84482792D01*
X219418746Y-83847396D01*
X218896982Y-82623422D01*
X218379616Y-81264703D01*
X218049008Y-80285164D01*
X217631417Y-79167365D01*
X217185539Y-78376379D01*
X216920976Y-78102352D01*
X216023341Y-77740279D01*
X215102527Y-77790279D01*
G36*
X122449904Y-81086792D02*
G01*
X118696954Y-84839742D01*
X131791746Y-97936538D01*
X133970946Y-100114190D01*
X136040475Y-102178598D01*
X137970037Y-104099771D01*
X139729334Y-105847715D01*
X141288070Y-107392439D01*
X142615949Y-108703951D01*
X143682672Y-109752260D01*
X144457945Y-110507373D01*
X144911468Y-110939299D01*
X145021668Y-111033334D01*
X145232503Y-110852584D01*
X145775199Y-110337454D01*
X146608326Y-109528626D01*
X147690452Y-108466782D01*
X148980149Y-107192604D01*
X150435984Y-105746774D01*
X152016529Y-104169972D01*
X152295712Y-103890747D01*
X159434625Y-96748160D01*
X159431777Y-96745312D01*
X158114180Y-96745312D01*
X151635677Y-103227865D01*
X150115684Y-104745037D01*
X148714760Y-106136120D01*
X147476489Y-107358393D01*
X146444459Y-108369136D01*
X145662253Y-109125629D01*
X145173459Y-109585152D01*
X145021803Y-109710417D01*
X144816547Y-109528217D01*
X144268711Y-109002137D01*
X143409409Y-108162960D01*
X142269752Y-107041469D01*
X140880854Y-105668447D01*
X139273826Y-104074676D01*
X137479781Y-102290940D01*
X135529831Y-100348019D01*
X133455090Y-98276698D01*
X132453301Y-97275176D01*
X120020171Y-84839936D01*
X123121883Y-81738224D01*
X124416635Y-80469871D01*
X125384568Y-79583391D01*
X126046309Y-79061533D01*
X126422486Y-78887050D01*
X126500341Y-78913258D01*
X126574219Y-79263191D01*
X126241668Y-79674551D01*
X125839154Y-80180458D01*
X125706250Y-80572792D01*
X125884416Y-80947325D01*
X126342402Y-81545969D01*
X126965444Y-82247842D01*
X127638774Y-82932062D01*
X128247628Y-83477747D01*
X128677240Y-83764015D01*
X128752369Y-83781251D01*
X129082238Y-83604873D01*
X129629837Y-83150484D01*
X130071875Y-82722917D01*
X130761563Y-82120448D01*
X131392683Y-81743504D01*
X131859278Y-81637410D01*
X132055388Y-81847490D01*
X132056250Y-81874079D01*
X131880970Y-82155176D01*
X131424248Y-82679187D01*
X130865625Y-83252084D01*
X130243403Y-83907499D01*
X129812515Y-84446905D01*
X129675000Y-84722106D01*
X129855274Y-85032250D01*
X130335317Y-85594993D01*
X131023958Y-86306303D01*
X131285511Y-86559785D01*
X132896023Y-88095953D01*
X134652722Y-86339253D01*
X136409422Y-84582554D01*
X136401982Y-84575000D01*
X135074060Y-84575000D01*
X134040625Y-85633334D01*
X133448586Y-86213150D01*
X133006504Y-86597562D01*
X132850000Y-86691667D01*
X132592145Y-86517877D01*
X132099563Y-86071837D01*
X131713120Y-85688374D01*
X130733431Y-84685081D01*
X131869119Y-83570488D01*
X133004807Y-82455894D01*
X134039434Y-83515447D01*
X135074060Y-84575000D01*
X136401982Y-84575000D01*
X135102678Y-83255860D01*
X134439499Y-82567512D01*
X134116925Y-82169324D01*
X134095667Y-81983081D01*
X134336440Y-81930567D01*
X134436290Y-81929167D01*
X135050435Y-82128532D01*
X135810982Y-82662609D01*
X136082110Y-82910975D01*
X137087572Y-83892783D01*
X138673769Y-82323137D01*
X139524440Y-81429973D01*
X140011850Y-80775902D01*
X140150042Y-80395879D01*
X139103999Y-80395879D01*
X139023223Y-80594847D01*
X138542808Y-81122951D01*
X138273958Y-81400000D01*
X137623008Y-82048497D01*
X137217421Y-82364041D01*
X136939709Y-82398851D01*
X136672383Y-82205143D01*
X136607083Y-82140834D01*
X136311395Y-81693678D01*
X136436970Y-81431644D01*
X136630514Y-81400000D01*
X136951555Y-81315839D01*
X129918578Y-81315839D01*
X129833464Y-81542146D01*
X129479758Y-81986025D01*
X129401621Y-82070821D01*
X128773378Y-82739555D01*
X127723042Y-81689219D01*
X127132158Y-81058230D01*
X126886158Y-80651330D01*
X126926993Y-80349591D01*
X127011252Y-80230962D01*
X127260987Y-80022166D01*
X127593061Y-80031955D01*
X128151258Y-80287424D01*
X128578544Y-80526315D01*
X129285389Y-80934768D01*
X129780588Y-81228181D01*
X129918578Y-81315839D01*
X136951555Y-81315839D01*
X137063614Y-81286463D01*
X137742045Y-81001711D01*
X138009375Y-80870834D01*
X138770821Y-80497418D01*
X139103999Y-80395879D01*
X140150042Y-80395879D01*
X140192825Y-80278229D01*
X140193004Y-80112311D01*
X140236834Y-79588100D01*
X140391752Y-79376856D01*
X140626930Y-79539148D01*
X141196597Y-80040999D01*
X142062852Y-80846012D01*
X143187795Y-81917791D01*
X144533524Y-83219939D01*
X146062138Y-84716059D01*
X147735737Y-86369755D01*
X149385822Y-88013947D01*
X158114180Y-96745312D01*
X159431777Y-96745312D01*
X140559736Y-77873271D01*
X139607928Y-78708970D01*
X137807941Y-79966117D01*
X135870910Y-80734636D01*
X133859350Y-81015995D01*
X131835779Y-80811661D01*
X129862713Y-80123101D01*
X128002670Y-78951782D01*
X127383458Y-78422083D01*
X126202855Y-77333842D01*
X122449904Y-81086792D01*
G37*
X122449904Y-81086792D02*
X118696954Y-84839742D01*
X131791746Y-97936538D01*
X133970946Y-100114190D01*
X136040475Y-102178598D01*
X137970037Y-104099771D01*
X139729334Y-105847715D01*
X141288070Y-107392439D01*
X142615949Y-108703951D01*
X143682672Y-109752260D01*
X144457945Y-110507373D01*
X144911468Y-110939299D01*
X145021668Y-111033334D01*
X145232503Y-110852584D01*
X145775199Y-110337454D01*
X146608326Y-109528626D01*
X147690452Y-108466782D01*
X148980149Y-107192604D01*
X150435984Y-105746774D01*
X152016529Y-104169972D01*
X152295712Y-103890747D01*
X159434625Y-96748160D01*
X159431777Y-96745312D01*
X158114180Y-96745312D01*
X151635677Y-103227865D01*
X150115684Y-104745037D01*
X148714760Y-106136120D01*
X147476489Y-107358393D01*
X146444459Y-108369136D01*
X145662253Y-109125629D01*
X145173459Y-109585152D01*
X145021803Y-109710417D01*
X144816547Y-109528217D01*
X144268711Y-109002137D01*
X143409409Y-108162960D01*
X142269752Y-107041469D01*
X140880854Y-105668447D01*
X139273826Y-104074676D01*
X137479781Y-102290940D01*
X135529831Y-100348019D01*
X133455090Y-98276698D01*
X132453301Y-97275176D01*
X120020171Y-84839936D01*
X123121883Y-81738224D01*
X124416635Y-80469871D01*
X125384568Y-79583391D01*
X126046309Y-79061533D01*
X126422486Y-78887050D01*
X126500341Y-78913258D01*
X126574219Y-79263191D01*
X126241668Y-79674551D01*
X125839154Y-80180458D01*
X125706250Y-80572792D01*
X125884416Y-80947325D01*
X126342402Y-81545969D01*
X126965444Y-82247842D01*
X127638774Y-82932062D01*
X128247628Y-83477747D01*
X128677240Y-83764015D01*
X128752369Y-83781251D01*
X129082238Y-83604873D01*
X129629837Y-83150484D01*
X130071875Y-82722917D01*
X130761563Y-82120448D01*
X131392683Y-81743504D01*
X131859278Y-81637410D01*
X132055388Y-81847490D01*
X132056250Y-81874079D01*
X131880970Y-82155176D01*
X131424248Y-82679187D01*
X130865625Y-83252084D01*
X130243403Y-83907499D01*
X129812515Y-84446905D01*
X129675000Y-84722106D01*
X129855274Y-85032250D01*
X130335317Y-85594993D01*
X131023958Y-86306303D01*
X131285511Y-86559785D01*
X132896023Y-88095953D01*
X134652722Y-86339253D01*
X136409422Y-84582554D01*
X136401982Y-84575000D01*
X135074060Y-84575000D01*
X134040625Y-85633334D01*
X133448586Y-86213150D01*
X133006504Y-86597562D01*
X132850000Y-86691667D01*
X132592145Y-86517877D01*
X132099563Y-86071837D01*
X131713120Y-85688374D01*
X130733431Y-84685081D01*
X131869119Y-83570488D01*
X133004807Y-82455894D01*
X134039434Y-83515447D01*
X135074060Y-84575000D01*
X136401982Y-84575000D01*
X135102678Y-83255860D01*
X134439499Y-82567512D01*
X134116925Y-82169324D01*
X134095667Y-81983081D01*
X134336440Y-81930567D01*
X134436290Y-81929167D01*
X135050435Y-82128532D01*
X135810982Y-82662609D01*
X136082110Y-82910975D01*
X137087572Y-83892783D01*
X138673769Y-82323137D01*
X139524440Y-81429973D01*
X140011850Y-80775902D01*
X140150042Y-80395879D01*
X139103999Y-80395879D01*
X139023223Y-80594847D01*
X138542808Y-81122951D01*
X138273958Y-81400000D01*
X137623008Y-82048497D01*
X137217421Y-82364041D01*
X136939709Y-82398851D01*
X136672383Y-82205143D01*
X136607083Y-82140834D01*
X136311395Y-81693678D01*
X136436970Y-81431644D01*
X136630514Y-81400000D01*
X136951555Y-81315839D01*
X129918578Y-81315839D01*
X129833464Y-81542146D01*
X129479758Y-81986025D01*
X129401621Y-82070821D01*
X128773378Y-82739555D01*
X127723042Y-81689219D01*
X127132158Y-81058230D01*
X126886158Y-80651330D01*
X126926993Y-80349591D01*
X127011252Y-80230962D01*
X127260987Y-80022166D01*
X127593061Y-80031955D01*
X128151258Y-80287424D01*
X128578544Y-80526315D01*
X129285389Y-80934768D01*
X129780588Y-81228181D01*
X129918578Y-81315839D01*
X136951555Y-81315839D01*
X137063614Y-81286463D01*
X137742045Y-81001711D01*
X138009375Y-80870834D01*
X138770821Y-80497418D01*
X139103999Y-80395879D01*
X140150042Y-80395879D01*
X140192825Y-80278229D01*
X140193004Y-80112311D01*
X140236834Y-79588100D01*
X140391752Y-79376856D01*
X140626930Y-79539148D01*
X141196597Y-80040999D01*
X142062852Y-80846012D01*
X143187795Y-81917791D01*
X144533524Y-83219939D01*
X146062138Y-84716059D01*
X147735737Y-86369755D01*
X149385822Y-88013947D01*
X158114180Y-96745312D01*
X159431777Y-96745312D01*
X140559736Y-77873271D01*
X139607928Y-78708970D01*
X137807941Y-79966117D01*
X135870910Y-80734636D01*
X133859350Y-81015995D01*
X131835779Y-80811661D01*
X129862713Y-80123101D01*
X128002670Y-78951782D01*
X127383458Y-78422083D01*
X126202855Y-77333842D01*
X122449904Y-81086792D01*
M02*
